<?xml version="1.0" standalone="no"?>
<!DOCTYPE svg PUBLIC "-//W3C//DTD SVG 1.1//EN" "http://www.w3.org/Graphics/SVG/1.1/DTD/svg11.dtd" >
<svg xmlns="http://www.w3.org/2000/svg" xmlns:xlink="http://www.w3.org/1999/xlink" version="1.1">
<metadata>
Created by FontForge 20170731 at Sat May 28 19:40:07 2022
 By Aleksey,,,
Copyright (c) Typographer Yining Chen, 2022. All rights reserved.
</metadata>
<defs>
<font id="LouisGeorgeCafe" horiz-adv-x="587" >
  <font-face 
    font-family="Louis George Cafe"
    font-weight="400"
    font-stretch="normal"
    units-per-em="1024"
    panose-1="0 0 0 0 0 0 0 0 0 0"
    ascent="819"
    descent="-205"
    x-height="475"
    cap-height="732"
    bbox="-150 -250 1290 968"
    underline-thickness="35"
    underline-position="-153"
    unicode-range="U+000D-FB02"
  />
<missing-glyph horiz-adv-x="543" 
d="M51 102h307v528h-307v-528zM0 681h410v-630h-410v630z" />
    <glyph glyph-name=".notdef" horiz-adv-x="543" 
d="M51 102h307v528h-307v-528zM0 681h410v-630h-410v630z" />
    <glyph glyph-name=".null" horiz-adv-x="0" 
 />
    <glyph glyph-name=".null" horiz-adv-x="0" 
 />
    <glyph glyph-name="nonmarkingreturn" unicode="&#xd;" horiz-adv-x="0" 
 />
    <glyph glyph-name="space" unicode=" " horiz-adv-x="254" 
 />
    <glyph glyph-name="exclam" unicode="!" horiz-adv-x="328" 
d="M183 100h1q21 0 37 -17q12 -15 12 -31v-3q0 -21 -18 -37q-15 -12 -32 -12q-19 0 -35 14q-15 16 -15 34v4q0 19 16 35q15 13 34 13zM139 732h89v0q-3 -143 -10 -569h-70q-3 142 -10 569h1z" />
    <glyph glyph-name="quotedbl" unicode="&#x22;" horiz-adv-x="402" 
d="M80 550v200h69v-200h-69zM215 550v200h69v-200h-69z" />
    <glyph glyph-name="numbersign" unicode="#" horiz-adv-x="476" 
d="M188 415q-5 -30 -20 -119h114q5 29 20 119h-114zM160 669q17 -2 68 -11v-1l-28 -172h114q7 45 30 179q68 -11 69 -11q-9 -56 -28 -168h73v-70h-85q-5 -30 -20 -119h79v-1v-69v-1h-91q-8 -52 -34 -208q-18 3 -70 12q9 49 34 196h-115q-9 -50 -34 -203q-17 3 -69 12
q8 48 32 191h-66l-1 1v69l1 1h77q5 29 20 119h-72v1v68v1h84q8 46 31 184h1z" />
    <glyph glyph-name="dollar" unicode="$" horiz-adv-x="528" 
d="M226 731h69q1 0 1 -1v-59q33 -5 57 -15q35 -13 67 -42q18 -18 22 -26q14 -17 18 -26q-46 -23 -62 -32q-3 4 -7 12q-6 8 -16 17q-44 43 -104 43h-3q-50 0 -87 -25q-30 -20 -43 -56q-4 -15 -4 -30v-1q0 -35 24 -54q16 -12 33 -19q42 -20 142 -41q26 -7 44 -15q17 -8 35 -21
q8 -6 19 -18q16 -18 23 -29q22 -38 22 -84q0 -66 -43 -119q-14 -15 -23 -22q-19 -14 -32 -21t-34 -14q-14 -6 -39 -10q-3 -1 -9 -1v-70l-1 -1h-69q0 1 -1 1v71q-19 3 -34 8q-24 8 -43 18q-16 9 -37 25q-18 18 -27 29q-22 27 -30 45q-5 10 -5 11l63 30q9 -20 23 -39
q18 -20 28 -27q20 -15 33 -20q33 -14 67 -14h3q49 0 92 27q8 6 19 17q14 18 19 28q10 24 10 48q0 46 -39 77q-11 7 -19 11q-11 5 -27 9q-21 5 -64 15q-62 16 -101 35q-15 7 -34 19q-11 8 -22 20q-37 39 -37 92v7q0 43 25 86q7 12 22 29q18 18 26 22q15 11 31 19q9 5 26 10
q27 8 32 8v62zM226 724h69h1v-762l-1 -1h-69v1v762v0z" />
    <glyph glyph-name="percent" unicode="%" horiz-adv-x="720" 
d="M124 575v-1q0 -29 24 -49q18 -13 37 -13q31 0 51 25q12 17 12 37v2q0 24 -18 43q-19 18 -44 18t-44 -17q-18 -20 -18 -45zM472 136q0 -32 29 -53q16 -10 35 -10q29 0 50 27q11 17 11 33v5q0 26 -22 46q-19 15 -39 15h-3q-26 0 -46 -23q-15 -18 -15 -40zM535 276
q57 0 101 -43q2 -2 5 -6q34 -40 34 -91q0 -57 -43 -100q-18 -17 -29 -22q-32 -18 -67 -18h-4q-44 0 -84 32q-16 12 -24 23q-29 39 -29 84v3q0 49 34 90q17 18 26 22q37 26 80 26zM184 714h4q48 0 89 -34q16 -15 21 -21q28 -39 28 -84q0 -57 -42 -100q-3 -2 -8 -7
q-40 -33 -91 -33q-49 0 -89 33q-12 11 -18 19q-10 13 -16 24q-15 31 -15 60v6q0 42 26 80q6 7 19 22q43 35 92 35zM630 716q-114 -179 -458 -716h-80q115 179 458 716h80z" />
    <glyph glyph-name="ampersand" unicode="&#x26;" horiz-adv-x="597" 
d="M222 576v-2q0 -22 10 -39q20 -35 49 -83q1 -1 2 -3q25 15 43 28q18 12 41 32q17 19 22 27q8 12 10 22q1 3 1 10v5q0 35 -24 55q-15 12 -43 19q-10 3 -21 3q-39 0 -69 -27q-12 -12 -14 -18q-7 -10 -7 -29zM119 172v-1q0 -63 52 -91q17 -8 22 -8q11 -4 31 -4h1q87 0 177 75
q-44 64 -98 145q-14 23 -43 68h-1q-25 -17 -52 -40q-12 -9 -31 -27q-21 -21 -30 -33q-22 -32 -25 -51q-3 -17 -3 -33zM312 719q45 0 90 -26q41 -25 58 -69q8 -25 8 -53q0 -35 -15 -62q-6 -12 -17 -25q-7 -9 -24 -26q-30 -27 -48 -38q-23 -16 -44 -29q59 -92 133 -201
q19 18 51 53q17 -16 50 -47q-4 -4 -15 -16q-17 -19 -46 -48q16 -23 49 -71l-56 -40q-23 34 -45 65v0q-33 -26 -61 -42q-77 -44 -151 -44h-8q-61 0 -105 33q-8 4 -24 22q-28 30 -39 78q-3 19 -3 35v7q0 36 11 68q7 18 20 38q11 15 27 35q20 22 40 40q24 20 40 33q16 11 36 24
q-24 40 -48 82q-11 17 -16 33q-7 23 -7 48q0 45 26 78q2 6 21 22q11 11 20 16q43 27 92 27z" />
    <glyph glyph-name="quotesingle" unicode="'" horiz-adv-x="216" 
d="M64 550v200h71v-200h-71z" />
    <glyph glyph-name="parenleft" unicode="(" horiz-adv-x="377" 
d="M284 763h16q0 -1 1 -2v-67l-1 -1h-16q-49 0 -96 -89q-52 -112 -52 -256v-37q0 -162 64 -278q42 -68 84 -68h16l1 -1v-67l-1 -1h-18q-75 0 -138 94q-77 133 -77 321v36q0 192 80 325q61 91 137 91z" />
    <glyph glyph-name="parenright" unicode=")" horiz-adv-x="377" 
d="M231 672q80 -133 80 -325v-36q0 -188 -78 -321q-63 -94 -138 -94h-18l-1 1v67l1 1h16q42 0 84 68q64 116 64 278v37q0 144 -53 256q-46 89 -96 89h-15l-1 1v67l1 2q12 -2 19 -2q8 -1 27 -4q28 -10 52 -26q24 -17 56 -59z" />
    <glyph glyph-name="asterisk" unicode="*" horiz-adv-x="512" 
d="M220 752h69v0v-124q30 10 118 41q22 -64 23 -65v-1q-29 -10 -118 -42q19 -25 73 -99q-14 -10 -56 -42h-1q-18 26 -73 101q-19 -25 -75 -101v0q-14 11 -56 42q18 25 72 99q-2 1 -117 43q8 21 23 65h1q29 -10 117 -41v124z" />
    <glyph glyph-name="plus" unicode="+" horiz-adv-x="415" 
d="M177 280v143h71v-143h142v-70h-142v-142h-71v142h-142v70h142z" />
    <glyph glyph-name="comma" unicode="," horiz-adv-x="247" 
d="M111 96q25 0 41 -21q8 -15 8 -37q0 -62 -72 -126q-20 -19 -27 -21q-6 8 -20 25q51 48 51 84q-18 8 -26 24q-6 11 -6 23q0 25 23 41q12 8 28 8z" />
    <glyph glyph-name="hyphen" unicode="-" horiz-adv-x="432" 
d="M38 280h353v-70h-353v70z" />
    <glyph glyph-name="period" unicode="." horiz-adv-x="251" 
d="M125 100h1q22 0 38 -17q12 -15 12 -31v-3q0 -21 -19 -37q-14 -12 -32 -12q-19 0 -34 14q-15 16 -15 34v4q0 19 16 35q15 13 33 13z" />
    <glyph glyph-name="slash" unicode="/" horiz-adv-x="338" 
d="M257 687h70v0l-256 -712h-71l256 712h1z" />
    <glyph glyph-name="zero" unicode="0" horiz-adv-x="673" 
d="M334 688h5q102 0 186 -86q96 -109 96 -258q0 -148 -96 -257q-84 -87 -189 -87q-117 0 -204 105q-80 104 -80 236v7q0 133 83 240q88 100 199 100zM122 347v-6q0 -106 64 -193q66 -79 151 -79q91 0 159 91q56 83 56 184q0 104 -58 188q-67 88 -158 88v0q-90 0 -159 -91
q-55 -82 -55 -182z" />
    <glyph glyph-name="one" unicode="1" horiz-adv-x="328" 
d="M76 675h143q0 -1 1 -1v-678l-1 -1h-68q-1 0 -1 1v609h-74h-1v69z" />
    <glyph glyph-name="two" unicode="2" horiz-adv-x="499" 
d="M250 691q101 0 159 -83q18 -25 28 -59q12 -34 12 -70q0 -54 -25 -96q-41 -48 -124 -143l-132 -152q-5 -6 -21 -26h301v-70h-391v0v74q0 1 5 6q42 48 126 145q29 34 119 138q15 17 60 69q12 25 12 55q0 49 -30 92q-36 49 -97 49h-4q-86 0 -117 -80q-5 -15 -10 -39
q-2 -16 -2 -24h-70v3q0 32 14 77q10 28 23 49q8 13 22 27q54 58 142 58z" />
    <glyph glyph-name="three" unicode="3" horiz-adv-x="526" 
d="M263 691q69 0 124 -47q17 -15 22 -23q15 -20 22 -33q21 -41 21 -85v-3q0 -67 -45 -121q-16 -19 -27 -27q-5 -4 -7 -4q10 -7 28 -23q16 -15 24 -25q43 -58 43 -128q0 -72 -47 -132q-8 -9 -22 -23q-19 -17 -33 -24q-51 -30 -106 -30h-7q-49 0 -97 25q-17 9 -36 25
q-20 18 -28 28q-12 15 -18 26q-7 13 -16 33q-13 36 -13 69v3h1h69h1v0q0 -48 32 -88q12 -15 20 -20q40 -31 88 -31h1q50 0 91 32q16 15 21 23q30 39 30 84q0 48 -32 88q-13 15 -22 21q-13 10 -23 15q-31 16 -63 16h-51v0v69v1h63q17 2 30 6q16 5 31 16q7 4 19 16
q14 18 18 29q12 24 12 52q0 45 -30 81q-15 14 -19 17q-32 22 -68 22h-1q-41 0 -75 -28q-43 -37 -43 -94v-2v0h-69v6q0 60 36 112q6 8 22 25q14 12 25 19q49 32 104 32z" />
    <glyph glyph-name="four" unicode="4" horiz-adv-x="555" 
d="M337 544l-100 -176q-26 -47 -105 -187h205v363zM407 679v-1v-497h96v-69h-1h-95v-116v0h-70v0v116h-325q27 47 107 189l120 212q20 35 79 140q4 6 14 26h75z" />
    <glyph glyph-name="five" unicode="5" horiz-adv-x="573" 
d="M468 679v-1v-70h-216q-1 -5 -5 -21q-9 -33 -34 -131v0q28 7 56 7q78 0 144 -47q12 -8 32 -27q19 -20 28 -33q46 -66 46 -144q0 -79 -47 -145q-9 -13 -27 -31q-21 -20 -34 -29q-24 -16 -43 -23q-48 -21 -95 -21h-9q-44 0 -92 19q-20 9 -41 22q-14 8 -36 28q-21 23 -27 32
q-13 17 -20 32q-7 11 -8 15q22 10 64 29q8 -17 20 -35q7 -9 20 -22q20 -18 35 -26q42 -24 88 -24h4q55 0 105 35q8 6 24 21l9 12q12 16 19 28q20 40 20 83q0 66 -44 118q-11 13 -20 20q-52 42 -116 42q-51 0 -97 -28l-63 -36q13 50 51 199q9 37 38 151v1h271z" />
    <glyph glyph-name="six" unicode="6" horiz-adv-x="577" 
d="M118 208v-2q0 -56 35 -104q6 -9 21 -23q51 -46 115 -46t115 44q17 18 21 23q36 48 36 107q0 70 -49 123q-15 14 -24 20q-44 31 -98 31q-63 0 -114 -44q-16 -14 -20 -21q-38 -48 -38 -108zM290 689q15 -8 61 -34q-31 -53 -123 -211q31 8 60 8h4q70 0 133 -42
q15 -10 32 -26q18 -17 27 -30q13 -20 20 -34q28 -55 28 -109v-7q0 -60 -32 -119q-9 -16 -24 -34q-7 -9 -24 -26q-34 -29 -73 -45q-43 -17 -90 -17q-78 0 -145 49q-11 8 -28 25q-21 23 -31 39q-14 24 -22 48q-15 40 -15 80v7q0 53 26 106q6 13 49 85l129 222q9 16 38 65z" />
    <glyph glyph-name="seven" unicode="7" horiz-adv-x="469" 
d="M27 679h416q0 -1 1 -1v-66q-21 -39 -84 -157q-29 -55 -115 -217q-26 -49 -104 -197q-8 -14 -30 -57v0q-3 0 -62 32q42 79 125 237q24 45 94 178l76 142q16 32 17 35h-334v1v69v1z" />
    <glyph glyph-name="eight" unicode="8" horiz-adv-x="541" 
d="M120 180v0q0 -49 31 -89q13 -15 24 -24q43 -32 94 -32h3q55 0 100 37q16 15 19 20q30 40 30 88q0 53 -37 96q-16 16 -25 21q-40 28 -88 28v0q-57 0 -102 -37q-17 -17 -20 -23q-10 -12 -17 -28q-12 -28 -12 -57zM157 509q0 -45 34 -81q34 -32 80 -32q48 0 82 36
q31 34 31 76v2q0 42 -31 76q-35 37 -82 37q-46 0 -80 -34t-34 -80zM269 692h3q55 0 104 -32q9 -7 26 -23q19 -21 26 -33q26 -44 26 -95q0 -65 -42 -117q-16 -19 -26 -25q-1 -1 -2 -3q12 -5 30 -20q18 -16 29 -29q49 -60 49 -135q0 -78 -53 -140q-19 -20 -24 -24
q-22 -17 -37 -25q-51 -27 -103 -27h-8q-48 0 -98 24q-17 8 -37 23q-9 8 -21 20q-23 25 -34 45q-7 12 -13 25q-15 39 -15 75v8q0 50 28 100q30 52 80 80q-8 6 -24 23q-13 16 -21 29q-25 44 -25 93q0 66 43 119q19 20 26 24q12 10 21 15q44 25 92 25z" />
    <glyph glyph-name="nine" unicode="9" horiz-adv-x="575" 
d="M116 448v-1q0 -60 39 -110q13 -16 28 -28q48 -36 105 -36q61 0 111 42q14 13 20 20q41 50 41 113v0q0 63 -42 113q-14 16 -23 23q-48 38 -107 38h-1q-60 0 -111 -42q-16 -15 -20 -21q-40 -50 -40 -111zM284 692h8q55 0 108 -28q19 -9 39 -25q22 -19 37 -38q18 -23 25 -38
q10 -18 18 -43q10 -36 10 -68v-8q0 -63 -34 -123q-24 -41 -72 -124q-32 -54 -126 -216q-1 -2 -5 -8q-59 34 -60 35q37 64 111 191q1 3 7 12v1h-1q-30 -8 -61 -8q-79 0 -145 48q-11 8 -26 23q-23 24 -32 40q-12 17 -18 34q-21 48 -21 95v8q0 53 26 107q9 18 25 40q8 10 20 22
q23 22 34 28q18 13 37 22q48 21 96 21z" />
    <glyph glyph-name="colon" unicode=":" horiz-adv-x="269" 
d="M144 475q21 0 37 -17q12 -15 12 -31v-3q0 -20 -16 -36q-15 -13 -33 -13h-1q-26 0 -42 23q-8 14 -8 25v4q0 20 17 36q15 12 34 12zM143 100h1q21 0 37 -17q12 -15 12 -31v-3q0 -21 -18 -37q-14 -12 -32 -12q-19 0 -35 14q-15 16 -15 34v4q0 19 17 35q14 13 33 13z" />
    <glyph glyph-name="semicolon" unicode=";" horiz-adv-x="254" 
d="M128 475q22 0 38 -17q13 -15 13 -31v-3q0 -20 -17 -36q-15 -13 -34 -13v0q-25 0 -42 23q-7 14 -7 25v4q0 20 16 36q15 12 33 12zM129 96q24 0 40 -21q10 -15 10 -37q0 -62 -74 -126q-20 -19 -25 -21q-7 8 -20 25q50 48 50 84q-18 8 -26 24q-6 11 -6 23q0 25 22 41
q13 8 29 8z" />
    <glyph glyph-name="less" unicode="&#x3c;" horiz-adv-x="460" 
d="M319 503q11 -14 45 -55q-44 -36 -175 -142q-14 -12 -57 -47q14 -12 57 -47q44 -36 175 -143q-12 -14 -45 -54q-43 35 -171 140q-23 18 -90 73v61q2 3 122 100q47 38 139 114z" />
    <glyph glyph-name="equal" unicode="=" horiz-adv-x="420" 
d="M47 355h325v-71h-325v71zM47 204h325v-69h-325v69z" />
    <glyph glyph-name="greater" unicode="&#x3e;" horiz-adv-x="460" 
d="M280 389q120 -97 122 -100v-61q-23 -18 -90 -73q-43 -35 -171 -140q-11 14 -45 54q44 36 175 143q14 12 57 47q-14 11 -57 47q-44 35 -175 142q12 14 45 55q35 -29 139 -114z" />
    <glyph glyph-name="question" unicode="?" horiz-adv-x="512" 
d="M261 100v0q27 0 43 -24q8 -12 8 -25v-2q0 -21 -19 -37q-14 -12 -32 -12q-21 0 -37 16q-12 15 -12 34q0 25 20 41q13 9 29 9zM263 752h6q50 0 98 -29q13 -7 33 -25q21 -22 27 -33q13 -17 21 -38q17 -43 17 -82v-6q0 -44 -21 -92q-9 -19 -24 -39q-7 -9 -23 -25
q-19 -19 -43 -35q-18 -13 -37 -29q-21 -20 -21 -43v-63v-59v-1h-69q-1 20 -1 79v43q0 54 42 93q21 20 47 38q20 14 33 27q18 18 21 26q9 12 15 27q12 29 12 55v0q0 54 -36 96q-16 17 -21 20q-34 24 -72 24h-2q-45 0 -83 -33q-15 -16 -20 -24q-26 -37 -26 -82v-18v0h-69v0v21
q0 51 25 101q7 11 20 29q5 8 21 24q19 17 35 25q47 28 95 28z" />
    <glyph glyph-name="at" unicode="@" horiz-adv-x="1011" 
d="M373 282q0 -51 28 -91q22 -29 54 -39q13 -4 26 -4q38 0 71 29q16 15 20 21q8 11 13 21q7 13 14 30q2 8 6 30q3 10 3 27q0 51 -28 91q-5 7 -17 19q-28 24 -61 24h-3q-35 0 -70 -29q-15 -15 -19 -22q-10 -12 -18 -28q-19 -39 -19 -79zM526 732h10q75 0 152 -30
q27 -11 52 -25q24 -13 56 -37q14 -12 30 -28q25 -26 34 -39q21 -26 32 -45q55 -96 55 -204v-3q0 -80 -26 -141q-9 -22 -26 -47q-27 -39 -66 -65q-48 -31 -96 -31h-2q-48 0 -90 31q-27 21 -39 60q-17 -16 -33 -25q-43 -25 -85 -25h-6q-44 0 -86 26q-10 6 -26 21
q-18 19 -22 27q-40 57 -40 130q0 66 33 126q7 12 23 32q16 18 27 27q53 43 113 43q55 0 101 -35q7 -6 19 -19q18 -18 24 -30q1 -2 3 -5q7 19 14 36q22 -8 66 -25q-23 -57 -42 -120q-11 -43 -11 -49q-5 -18 -7 -37q-3 -22 -3 -36v-5q0 -33 12 -52q4 -6 14 -13q20 -13 42 -13
q40 0 80 37q16 15 20 22q26 35 36 78q9 36 9 79q0 102 -57 188q-10 15 -28 36q-14 15 -31 29q-26 23 -44 33q-87 53 -185 53h-2q-95 0 -180 -42q-19 -9 -41 -24q-17 -11 -45 -35q-21 -21 -27 -29q-21 -25 -31 -41q-18 -30 -32 -65q-24 -65 -24 -135v-3q0 -121 65 -221
q12 -18 30 -39q22 -23 30 -29q24 -20 40 -31q93 -60 209 -60q100 0 178 42q32 -59 33 -62q-22 -12 -54 -24q-21 -7 -52 -15q-52 -10 -94 -10h-22q-50 0 -113 16q-47 13 -79 29q-30 15 -65 40q-16 11 -40 34q-27 26 -36 39q-25 31 -40 59q-15 24 -24 48q-9 21 -21 65
q-15 59 -15 115v11q0 84 32 167q15 34 38 71q14 22 35 47q12 13 30 31q26 24 45 37q28 20 60 35q26 13 64 26q72 23 142 23z" />
    <glyph glyph-name="A" unicode="A" horiz-adv-x="676" 
d="M376 732q1 0 16 -38q87 -226 263 -677q2 -4 7 -17h-1h-75q-3 4 -45 113q-21 56 -24 59h-357q-3 -4 -53 -135q-13 -34 -15 -37h-73h-1h-1q72 183 286 732h73zM339 632q-38 -97 -152 -389h304q-38 97 -152 389v0z" />
    <glyph glyph-name="B" unicode="B" horiz-adv-x="575" 
d="M88 732h220q106 0 168 -78q32 -45 32 -102v-13q0 -90 -73 -150v0q32 -14 64 -56q32 -44 32 -106v-24q0 -127 -113 -183q-49 -20 -79 -20h-181h-70q-1 0 -2 1v730zM156 662v-245h147q81 0 121 66q13 25 13 57v12q0 76 -82 104q-23 6 -47 6h-152zM156 348v-278h5
q44 0 173 1q33 0 71 21q55 36 55 112v24q0 84 -89 112q-27 8 -55 8h-160z" />
    <glyph glyph-name="C" unicode="C" horiz-adv-x="704" 
d="M379 732h5q128 0 230 -104q46 -53 57 -81q-60 -31 -63 -31q-12 24 -33 52q-84 94 -192 94h-3q-113 0 -196 -101q-65 -88 -65 -193v-4q0 -123 84 -216q78 -78 180 -78q110 0 194 98q20 28 32 51q21 -11 62 -32q-11 -31 -60 -87q-102 -100 -231 -100q-137 0 -242 115
q-90 112 -90 249v4q0 151 105 265q101 99 226 99z" />
    <glyph glyph-name="D" unicode="D" horiz-adv-x="665" 
d="M156 662v-592h99q156 0 246 133q47 78 47 163q0 129 -97 223q-31 26 -56 40q-64 33 -131 33h-108zM88 732h176q126 0 228 -87q47 -44 57 -63q70 -98 70 -216q0 -143 -101 -254q-106 -112 -263 -112h-167q-1 0 -2 1v730z" />
    <glyph glyph-name="E" unicode="E" horiz-adv-x="504" 
d="M87 732h363h1v-69l-1 -1h-294v-261h235l1 -1v-68l-1 -1h-235v-261h294l1 -1v-69h-1h-363h-1v732h1z" />
    <glyph glyph-name="F" unicode="F" horiz-adv-x="475" 
d="M87 732h362h1v-69q0 -1 -1 -1h-293v-261h247l1 -1v-68l-1 -1h-247v-331v0h-69h-1v732h1z" />
    <glyph glyph-name="G" unicode="G" horiz-adv-x="778" 
d="M381 732h7q129 0 232 -104q40 -44 60 -82q0 -2 2 -6q-59 -32 -62 -32h-1q-11 28 -49 72q-81 82 -184 82h-4q-113 0 -198 -98q-68 -89 -68 -196v-4q0 -108 68 -195q84 -99 200 -99q97 0 176 72q40 42 51 67q14 21 29 66q4 14 8 36h-200q-1 0 -2 1v68l2 1h275l1 -1
q0 -57 -15 -120q-37 -120 -129 -193q-91 -67 -196 -67q-129 0 -230 97q-42 44 -60 80q-49 89 -49 186v5q0 144 98 255q42 44 72 61q80 48 166 48z" />
    <glyph glyph-name="H" unicode="H" horiz-adv-x="635" 
d="M88 732h67l1 -1v-330h323v330l1 1h68l1 -1v-730l-1 -1h-68l-1 1v331h-323v-331l-1 -1h-67q-1 0 -2 1v730z" />
    <glyph glyph-name="I" unicode="I" horiz-adv-x="242" 
d="M87 732h69v0v-732v0h-69h-1v732h1z" />
    <glyph glyph-name="J" unicode="J" horiz-adv-x="511" 
d="M359 732h67h1v-524q0 -60 -34 -115q-9 -16 -27 -34q-17 -18 -24 -22q-9 -7 -21 -14q-13 -7 -25 -11q-31 -12 -56 -12h-50q-31 0 -67 16q-70 33 -102 108q-17 41 -17 81v39v1h67l1 -1v-36q0 -48 32 -92q12 -16 25 -24q32 -24 64 -24h43q38 0 73 30q16 15 19 22
q31 40 31 92v520v0z" />
    <glyph glyph-name="K" unicode="K" horiz-adv-x="630" 
d="M88 732h67l1 -1v-406q88 101 352 405q1 0 3 2h91v-1q-76 -88 -305 -351v-1q78 -95 309 -379h-1h-92q-52 65 -209 260q-13 16 -53 65q-91 -102 -95 -109v-215l-1 -1h-67q-1 0 -2 1v730z" />
    <glyph glyph-name="L" unicode="L" horiz-adv-x="479" 
d="M87 732h69v0v-662h313v-70h-382h-1v732h1z" />
    <glyph glyph-name="M" unicode="M" horiz-adv-x="879" 
d="M88 732h92q2 0 27 -62q77 -189 232 -566h1q64 157 257 628h94l1 -1v-730l-1 -1h-71l-1 1v597h-1q-61 -149 -245 -598h-1h-65q-2 0 -22 51q-1 1 -166 405q-51 123 -59 143v0v-598l-1 -1h-71q-1 0 -2 1v730z" />
    <glyph glyph-name="N" unicode="N" horiz-adv-x="711" 
d="M88 732h85q4 -4 268 -436q38 -62 113 -185h1v620l1 1h68l1 -1v-730l-1 -1h-83q-7 8 -37 60q-3 3 -268 437q-25 42 -76 124v-620q-1 0 -2 -1h-70q-1 0 -2 1v730z" />
    <glyph glyph-name="O" unicode="O" horiz-adv-x="772" 
d="M387 732h2q128 0 230 -97q37 -41 50 -64q58 -94 58 -203v-4q0 -151 -107 -265q-101 -99 -232 -99q-128 0 -230 97q-45 49 -55 71q-54 92 -54 195v6q0 134 89 244q35 39 51 50q92 69 198 69zM120 368v-4q0 -122 86 -216q81 -78 182 -78q120 0 206 106q62 87 62 188v4
q0 122 -86 216q-81 78 -182 78q-114 0 -199 -97q-69 -88 -69 -197z" />
    <glyph glyph-name="P" unicode="P" 
d="M88 732h229q106 0 183 -84q56 -71 56 -151v-8q0 -91 -69 -164q-75 -70 -169 -70h-162v-254l-1 -1h-67q-1 0 -2 1v730zM156 662v-337h161q83 0 139 71q30 45 30 95v5q0 76 -66 131q-47 35 -104 35h-160z" />
    <glyph glyph-name="Q" unicode="Q" horiz-adv-x="781" 
d="M387 732h2q128 0 230 -97q37 -42 50 -65q58 -94 58 -202v-4q0 -129 -81 -236v0q42 -41 90 -91q-17 -16 -50 -49l-89 89q-94 -77 -209 -77q-128 0 -230 96q-45 50 -55 72q-54 92 -54 195v6q0 134 89 244q35 39 51 50q92 69 198 69zM120 368v-4q0 -122 86 -216
q81 -78 183 -78q85 0 158 57v1v0q-19 20 -77 78l49 49h1l76 -76q60 85 60 185v4q0 122 -86 216q-80 78 -182 78q-114 0 -199 -97q-69 -89 -69 -197z" />
    <glyph glyph-name="R" unicode="R" horiz-adv-x="580" 
d="M88 732h229q106 0 183 -84q56 -71 56 -151v-8q0 -97 -78 -173q-42 -35 -82 -48q52 -89 154 -267l-1 -1h-81q-4 4 -60 105l-84 150h-168v-254l-1 -1h-67q-1 0 -2 1v730zM156 662v-337h161q83 0 139 71q30 45 30 95v5q0 76 -66 131q-47 35 -104 35h-160z" />
    <glyph glyph-name="S" unicode="S" horiz-adv-x="520" 
d="M263 741h8q51 0 101 -26q16 -10 34 -24q9 -7 22 -20q19 -23 27 -36q7 -11 11 -20v0q-16 -8 -63 -30q-7 15 -27 38q-45 48 -108 48h-1q-62 0 -103 -37q-15 -15 -20 -24q-22 -34 -22 -75q0 -43 26 -67q19 -17 44 -29q45 -22 144 -44q25 -7 43 -17q21 -10 43 -30
q18 -17 22 -24q9 -12 15 -23q24 -45 24 -93v-1v-2v-2v-2q0 -52 -28 -104q-35 -63 -107 -92q-43 -15 -82 -15h-9q-49 0 -101 25q-16 8 -35 22q-28 22 -50 51q-16 22 -27 43q-8 19 -8 20q1 1 64 27q11 -25 25 -45q6 -9 22 -25q21 -20 35 -27q38 -21 79 -21h3q48 0 91 28
q9 7 22 20q20 23 28 52q7 23 7 44v1q0 53 -35 90q-18 16 -29 20q-8 5 -21 9q-11 4 -52 13q-83 22 -127 46q-96 50 -96 150v4q0 63 37 118q7 9 23 26q18 18 31 25q21 14 47 23q38 12 73 12z" />
    <glyph glyph-name="T" unicode="T" horiz-adv-x="477" 
d="M8 732h461h1v-69q0 -1 -1 -1h-195v-662h-1h-69v0v662h-196v1v69v0z" />
    <glyph glyph-name="U" unicode="U" horiz-adv-x="693" 
d="M87 732h66q1 0 2 -1v-469q0 -117 84 -173q37 -19 73 -19h69q76 0 125 70q33 51 33 129v462l1 1h68l1 -1v-462q0 -162 -116 -237q-53 -32 -110 -32h-72q-84 0 -151 64q-75 78 -75 197v470z" />
    <glyph glyph-name="V" unicode="V" horiz-adv-x="684" 
d="M95 732q8 -19 30 -76q55 -139 217 -555h1q45 117 181 468q16 41 64 163v0h77h1h1q-72 -181 -286 -724l-4 -8h-70q-2 0 -45 112q-82 206 -245 620v0h78z" />
    <glyph glyph-name="W" unicode="W" horiz-adv-x="950" 
d="M105 732q2 0 10 -32q47 -187 142 -561h2q38 120 153 481q9 28 37 112h51q1 0 21 -65q57 -176 170 -528h1q38 148 151 593h1h73h2v0q-47 -180 -187 -719q-3 -13 -4 -13h-64q-3 0 -15 42q-58 180 -174 542v0l-188 -584h-66q-1 0 -19 73q-57 220 -171 659v0h74z" />
    <glyph glyph-name="X" unicode="X" horiz-adv-x="652" 
d="M128 732q148 -225 197 -301h1q49 75 198 301h86v0q-184 -279 -234 -352q84 -127 251 -379l-2 -1h-88q-2 2 -39 59q-57 88 -171 262h-1q-51 -77 -205 -311q-5 -10 -6 -10h-90l-1 1q63 95 252 378q-59 88 -235 353h2h85z" />
    <glyph glyph-name="Y" unicode="Y" horiz-adv-x="596" 
d="M15 732h86q9 -12 195 -299q1 0 3 -2q50 75 198 301h85l2 -1l-248 -372v-358l-1 -1h-72l-1 1v358q-62 93 -247 372v1z" />
    <glyph glyph-name="Z" unicode="Z" horiz-adv-x="596" 
d="M84 732h489l1 -1q-67 -107 -270 -428q-37 -58 -148 -233h397q1 0 2 -2v-67q-1 0 -2 -1h-522l-2 1q66 105 264 418q39 60 154 243h-363l-1 2v67z" />
    <glyph glyph-name="bracketleft" unicode="[" horiz-adv-x="389" 
d="M96 757h183h1v-69l-1 -1h-114v-702h114h1v-69l-1 -1h-183q-1 0 -1 1v841h1z" />
    <glyph glyph-name="backslash" unicode="\" horiz-adv-x="338" 
d="M71 687l256 -712h-71l-256 712h1h69h1z" />
    <glyph glyph-name="bracketright" unicode="]" horiz-adv-x="389" 
d="M295 757v-841l-1 -1h-183q-1 0 -1 1v69h1h113v702h-113q-1 0 -1 1v69h1h183h1z" />
    <glyph glyph-name="asciicircum" unicode="^" horiz-adv-x="465" 
d="M263 700q5 -8 21 -33q26 -43 105 -172q11 -17 42 -68v-1q-15 -9 -59 -36v0q-68 109 -87 141q-1 1 -53 85q-36 -60 -109 -179q-7 -12 -30 -48q-14 10 -59 38v0q31 50 124 201q11 18 45 72h60z" />
    <glyph glyph-name="underscore" unicode="_" horiz-adv-x="545" 
d="M35 -10h475v-70h-475v70z" />
    <glyph glyph-name="grave" unicode="`" horiz-adv-x="444" 
d="M157 962q42 -25 166 -102q-10 -14 -38 -59q-41 25 -164 102q9 15 36 59z" />
    <glyph glyph-name="a" unicode="a" 
d="M283 480q98 0 157 -81q0 -1 1 -3v0v78q1 0 2 2h67q0 -1 2 -2v-473q-1 0 -2 -1h-67q-1 0 -2 1v78v0q-54 -83 -163 -83v0h-1q-97 0 -170 77q-61 74 -61 162v5q0 95 67 168q71 72 170 72zM116 240v-3q0 -84 67 -138q42 -33 93 -33q109 0 151 106q10 32 10 63v10q0 44 -27 91
q-47 73 -126 73q-105 0 -153 -100q-15 -36 -15 -69z" />
    <glyph glyph-name="b" unicode="b" horiz-adv-x="589" 
d="M78 732h67l2 -1v-335v0q6 15 42 46q51 38 116 38q122 0 196 -105q41 -64 41 -132v-11q0 -91 -68 -167q-36 -33 -66 -47q-49 -22 -96 -22v0h-3q-108 0 -162 83v0v-78q-1 0 -2 -1h-67l-2 1v730q1 0 2 1zM151 243v-6q0 -86 66 -142q39 -29 96 -29q79 0 132 75q27 47 27 92v8
q0 75 -61 131q-44 37 -107 37q-93 0 -139 -98q-14 -37 -14 -68z" />
    <glyph glyph-name="c" unicode="c" horiz-adv-x="500" 
d="M269 479h13q74 0 141 -55q33 -32 43 -50q-19 -13 -58 -39q-31 48 -88 67q-20 6 -41 6h-8q-60 0 -111 -51q-45 -53 -45 -120v-2q0 -71 54 -126q48 -44 107 -44q72 0 125 65q2 3 7 10q15 -9 60 -37q-44 -68 -124 -96q-36 -11 -68 -11q-88 0 -157 64q-74 76 -74 175v5
q0 99 74 175q70 64 150 64z" />
    <glyph glyph-name="d" unicode="d" horiz-adv-x="589" 
d="M444 732h68l1 -1v-730l-1 -1h-68v1v78h-1q-54 -83 -163 -83v0h-1q-97 0 -170 77q-61 74 -61 162v5q0 95 68 168q71 72 168 72q99 0 157 -81q1 -1 2 -3h1v335v1zM118 240v-3q0 -84 67 -138q42 -33 94 -33q108 0 149 106q12 32 12 63v10q0 44 -28 91q-47 73 -125 73
q-107 0 -155 -100q-14 -36 -14 -69z" />
    <glyph glyph-name="e" unicode="e" horiz-adv-x="527" 
d="M261 480q103 0 177 -92q49 -71 49 -139v-6q0 -23 -3 -23h-380q0 -24 20 -68q30 -56 87 -77q27 -10 49 -10q68 0 119 60q17 24 22 39h2q40 -16 63 -28q-11 -31 -49 -73q-69 -67 -157 -67q-104 0 -178 91q-49 69 -49 148v4q0 100 72 175q67 66 156 66zM111 289h299
q-21 66 -71 96q-36 24 -79 24q-73 0 -125 -68q-16 -24 -24 -52z" />
    <glyph glyph-name="f" unicode="f" horiz-adv-x="282" 
d="M281 732h15v0v-69v-1h-11q-62 0 -94 -65q-22 -45 -22 -118v-4h127v0v-70v0h-127v-405h-1h-68h-1v405h-85h-1v70h1h85v9q0 112 50 180q6 8 19 21q17 16 30 23q14 8 28 13q29 11 55 11z" />
    <glyph glyph-name="g" unicode="g" horiz-adv-x="540" 
d="M131 304v-5q0 -31 23 -62q12 -13 18 -17q34 -25 76 -25q45 0 81 30q35 33 35 76q0 41 -32 74q-16 15 -35 23q-24 10 -49 10h-2q-33 0 -63 -17q-10 -6 -23 -19q-15 -16 -20 -31q-9 -19 -9 -37zM118 -56v-1q0 -32 35 -59q44 -29 112 -29q62 0 107 29q8 4 19 16q21 24 21 48
v1q0 23 -19 43q-15 13 -40 20q-30 8 -59 8h-47q-38 0 -67 5q-12 -8 -32 -25q-30 -31 -30 -56zM247 479q61 0 112 -35q10 12 17 16q17 12 33 15q13 4 25 4h15l1 -1v-69l-1 -1h-12q-16 0 -24 -8q-4 -5 -4 -9q8 -14 16 -35q9 -27 9 -55q0 -67 -49 -120q-21 -19 -30 -25
q-15 -9 -34 -17q-36 -15 -72 -15h-3q-42 0 -83 20q-10 -12 -10 -25q0 -12 7 -15q20 -14 92 -14q12 0 36 1q97 0 151 -46q13 -13 19 -21q25 -36 25 -76t-27 -78q-5 -10 -23 -26q-17 -16 -29 -23q-13 -9 -30 -16q-21 -8 -40 -13q-34 -8 -61 -8h-17q-44 0 -91 16q-24 9 -42 20
q-13 8 -28 21q-14 14 -19 22q-28 38 -28 77v6q0 41 32 85q13 14 25 23q1 1 3 2q-25 24 -25 63v1q0 35 22 64q1 1 1 2q-11 12 -19 26q-26 42 -26 89q0 66 46 117q17 18 22 21q16 12 33 20q42 20 85 20z" />
    <glyph glyph-name="h" unicode="h" horiz-adv-x="565" 
d="M78 732h67l2 -1v-310q56 55 137 55q147 0 194 -105q14 -32 14 -70v-300q-1 0 -1 -1h-68l-2 1v299q0 83 -91 103q-13 2 -38 2h-20q-84 0 -116 -58q-9 -23 -9 -51v-295q-1 0 -2 -1h-67l-2 1v730q1 0 2 1z" />
    <glyph glyph-name="i" unicode="i" horiz-adv-x="233" 
d="M82 475h69h1v-475h-1h-69h-1v475h1zM115 732h4q18 0 34 -16q14 -16 14 -32v-3q0 -21 -19 -37q-14 -12 -30 -12h-3q-22 0 -38 20q-10 13 -10 28v4q0 19 16 35q15 13 32 13z" />
    <glyph glyph-name="j" unicode="j" horiz-adv-x="247" 
d="M95 475h69v0v-435q0 -75 -17 -124q-9 -26 -19 -43q-8 -15 -26 -35q-14 -15 -19 -18q-46 -36 -104 -36v69v1q51 0 82 44q11 17 20 41q13 41 13 90v446h1zM128 732h4q18 0 35 -16q13 -16 13 -32v-3q0 -21 -19 -37q-14 -12 -30 -12h-3q-22 0 -38 20q-10 13 -10 28v4
q0 19 16 35q15 13 32 13z" />
    <glyph glyph-name="k" unicode="k" horiz-adv-x="504" 
d="M78 732h67l2 -1v-483q59 57 237 228h100v-1q-53 -52 -212 -205q53 -67 213 -270h-1h-90q-5 5 -151 192q-8 10 -23 28q-72 -69 -73 -69v-150q-1 0 -2 -1h-67l-2 1v730q1 0 2 1z" />
    <glyph glyph-name="l" unicode="l" horiz-adv-x="223" 
d="M77 732h69h1v-732h-1h-69h-1v732h1z" />
    <glyph glyph-name="m" unicode="m" horiz-adv-x="910" 
d="M281 475h9q111 0 166 -68q56 68 165 68h14q134 0 185 -98q16 -35 16 -72v-304l-1 -1h-67q-1 0 -2 1v303q0 60 -60 89q-30 12 -68 12h-17q-94 0 -122 -64q-7 -17 -7 -46v-294q-1 0 -2 -1h-67q-1 0 -2 1v299q0 74 -75 99q-18 6 -69 6q-62 0 -93 -26q-37 -24 -37 -83v-295
q-1 0 -2 -1h-67l-2 1v466q1 0 2 1h67l2 -1v-47q54 55 134 55z" />
    <glyph glyph-name="n" unicode="n" horiz-adv-x="565" 
d="M281 475h9q141 0 189 -107q13 -32 13 -68v-299q-1 0 -2 -1h-67q-1 0 -2 1v299q0 74 -75 99q-18 6 -69 6q-62 0 -93 -26q-37 -24 -37 -83v-295q-1 0 -2 -1h-67l-2 1v466q1 0 2 1h67l2 -1v-47q54 55 134 55z" />
    <glyph glyph-name="o" unicode="o" horiz-adv-x="552" 
d="M269 479h13q77 0 146 -60q79 -76 79 -182q0 -107 -83 -185q-68 -56 -148 -56q-87 0 -157 64q-74 76 -74 175v5q0 99 74 175q70 64 150 64zM115 237v-2q0 -71 53 -125q48 -45 108 -45q75 0 128 70q32 49 32 102q0 76 -56 131q-47 40 -101 40h-8q-59 0 -111 -51
q-45 -53 -45 -120z" />
    <glyph glyph-name="p" unicode="p" horiz-adv-x="589" 
d="M309 480q1 0 1 -1h1l1 1q86 0 156 -64q36 -39 51 -72q23 -52 23 -100v-12q0 -92 -70 -168q-71 -68 -167 -68q-98 0 -157 80q0 1 -1 3v0v-293q-1 0 -2 -2h-67q0 1 -2 2v682h2h67h2v-72q55 84 162 84zM151 237v-5q0 -60 44 -116q44 -50 109 -50q100 0 149 91q19 39 19 78v7
q0 69 -53 123q-47 44 -107 44q-108 0 -149 -105q-12 -32 -12 -67z" />
    <glyph glyph-name="q" unicode="q" horiz-adv-x="589" 
d="M279 480v-1l1 1v0q109 0 163 -84h1v72l1 1h67q1 0 1 -1v-682l-1 -2h-67q0 1 -1 2v293h-1q-6 -14 -38 -43q-52 -40 -120 -40q-121 0 -196 104q-41 64 -41 135v6q0 104 81 182q68 57 150 57zM118 239v-3q0 -73 55 -128q45 -42 114 -42q77 0 125 72q28 47 28 92v11
q0 71 -52 127q-41 41 -111 41q-78 0 -132 -74q-27 -46 -27 -96z" />
    <glyph glyph-name="r" unicode="r" horiz-adv-x="387" 
d="M276 479q53 0 93 -24q-5 -25 -16 -75v0q-45 27 -82 27q-83 0 -117 -78q-7 -18 -7 -37v-291q-1 0 -2 -1h-67l-2 1v467q1 0 2 1h67l2 -1v-41v0q22 30 65 43q32 9 64 9z" />
    <glyph glyph-name="s" unicode="s" horiz-adv-x="452" 
d="M227 483h6q51 0 98 -25q14 -7 32 -22q15 -13 24 -24q8 -11 8 -12q-46 -26 -60 -36h-1q-9 14 -27 27q-32 21 -78 21q-52 0 -85 -25q-23 -20 -23 -44q0 -19 15 -28q5 -5 16 -10q21 -11 75 -24q25 -5 63 -12q25 -6 41 -14q15 -7 30 -19q5 -3 19 -17q30 -35 30 -77v-3
q0 -44 -33 -84q-13 -14 -20 -19q-16 -12 -29 -19q-48 -22 -99 -22h-6q-55 0 -107 27q-48 28 -76 77q1 1 29 16q11 6 32 17q23 -40 67 -57q28 -10 59 -10q44 0 78 20q7 4 19 15q16 19 16 40q0 33 -41 53q-11 4 -30 9q-80 14 -125 30q-92 35 -92 110v2q0 45 34 84q17 16 23 20
q22 16 52 24q33 11 66 11z" />
    <glyph glyph-name="t" unicode="t" horiz-adv-x="340" 
d="M96 732h69v0v-257h130v0v-70v-1h-130v-274q0 -21 11 -38q11 -14 28 -20q8 -2 15 -2h2q19 0 52 13q2 1 7 3q25 -56 28 -64q-7 -4 -28 -11q-36 -11 -56 -11h-8q-27 0 -56 16q-40 21 -55 62q-9 26 -9 57v269h-79q0 1 -1 1v70h1h79v257z" />
    <glyph glyph-name="u" unicode="u" horiz-adv-x="565" 
d="M76 475h67l1 -2v-298q0 -79 84 -100q16 -5 56 -5q52 0 77 14q39 18 51 51q7 23 7 45v293q0 1 1 2h68l1 -2v-465l-1 -1h-68l-1 1v47q-55 -55 -139 -55q-89 0 -139 38q-67 51 -67 134v301q0 1 2 2z" />
    <glyph glyph-name="v" unicode="v" horiz-adv-x="517" 
d="M96 475q1 0 163 -376q1 1 73 170q30 69 89 206h78l1 -2q-51 -118 -207 -473h-68q-1 0 -17 39q-64 145 -191 436v0h79z" />
    <glyph glyph-name="w" unicode="w" horiz-adv-x="753" 
d="M103 475q1 0 16 -44q36 -108 109 -323h1q31 91 122 366v1h51q2 0 18 -51q19 -57 104 -316h1q32 91 125 367h75q1 0 2 -2q-41 -118 -164 -473h-76q-2 0 -27 81q-28 83 -83 250h-1q-27 -83 -109 -331h-75q-4 5 -21 57l-144 417v1h76z" />
    <glyph glyph-name="x" unicode="x" horiz-adv-x="527" 
d="M35 475h91q34 -44 137 -178q6 10 120 156q13 19 17 22h91v-2q-45 -56 -178 -226v-1q10 -10 191 -246v0h-91q-37 49 -150 196q-38 -49 -151 -196h-90l-2 1q48 62 192 246v1q-44 56 -177 227v0z" />
    <glyph glyph-name="y" unicode="y" horiz-adv-x="511" 
d="M96 475q1 0 23 -52q45 -108 136 -324q1 2 58 133q103 243 104 243h76v0q-67 -155 -266 -620q-8 -18 -31 -71h-75v1q24 56 95 224q-49 117 -199 466v0h79z" />
    <glyph glyph-name="z" unicode="z" horiz-adv-x="491" 
d="M72 475h377v0q-68 -102 -273 -405h261l2 -1v-68q-1 0 -2 -1h-393v1q69 101 273 404h-245l-1 1v67q0 1 1 2z" />
    <glyph glyph-name="braceleft" unicode="{" horiz-adv-x="411" 
d="M175 316q36 -37 36 -79v-236q0 -41 34 -57q24 -9 47 -9h26h1v-68q0 -1 -1 -2q-6 0 -24 -1q-90 0 -134 64q-19 34 -19 72v236q0 18 -23 36q-14 10 -39 19q-1 0 -1 1v47l1 1q25 9 39 19q23 18 23 36v237q0 37 19 71q44 64 134 64q8 -1 24 -1l1 -2v-68h-1h-26q-23 0 -47 -9
q-34 -16 -34 -58v-235q0 -42 -36 -78z" />
    <glyph glyph-name="bar" unicode="|" horiz-adv-x="220" 
d="M75 0v700h70v-700h-70z" />
    <glyph glyph-name="braceright" unicode="}" horiz-adv-x="411" 
d="M236 316q-36 36 -36 78v235q0 42 -34 58q-25 9 -47 9h-26h-1v68q0 1 1 2q6 0 24 1q90 0 134 -64q19 -34 19 -71v-237q0 -18 23 -36q15 -10 39 -19q1 0 1 -1v-47l-1 -1q-24 -9 -39 -19q-23 -18 -23 -36v-236q0 -38 -19 -72q-44 -64 -134 -64q-8 1 -24 1l-1 2v68h1h26
q22 0 47 9q34 16 34 57v236q0 42 36 79z" />
    <glyph glyph-name="asciitilde" unicode="~" horiz-adv-x="451" 
d="M402 337q-16 -17 -35 -26q-24 -12 -51 -12q-24 0 -100 24q-75 24 -99 24q-20 0 -48 -14q-15 -9 -35 -31v83q18 18 33 26q28 13 50 13q26 0 101 -25q76 -25 98 -25q25 0 48 14q19 10 38 32v-83z" />
    <glyph glyph-name="nonbreakingspace" unicode="&#xa0;" horiz-adv-x="254" 
 />
    <glyph glyph-name="exclamdown" unicode="&#xa1;" horiz-adv-x="328" 
d="M146 632h-1q-21 0 -37 17q-12 15 -12 31v3q0 21 18 37q14 12 32 12q19 0 34 -14q16 -16 16 -34v-4q0 -19 -17 -35q-15 -13 -33 -13zM190 0h-89h-1q3 143 11 569h69q3 -142 11 -569h-1z" />
    <glyph glyph-name="cent" unicode="&#xa2;" horiz-adv-x="500" 
d="M221 585v63h1h69h1v-56q68 -4 131 -56q33 -31 43 -49q-19 -13 -58 -39q-31 48 -88 67q-15 5 -28 6v-341q63 5 109 63q2 4 7 10q15 -9 60 -37q-44 -68 -124 -96q-27 -9 -52 -11v-57h-71v63q-55 14 -102 57q-74 76 -74 176v5q0 99 74 175q49 44 102 57zM221 188v324
q-32 -12 -61 -42q-45 -53 -45 -119v-3q0 -72 54 -126q25 -22 52 -34z" />
    <glyph glyph-name="sterling" unicode="&#xa3;" horiz-adv-x="608" 
d="M333 698q60 0 114 -34l25 -20q0 -1 1 -2v-1l-49 -49q-20 19 -41 26q-26 10 -50 10q-48 0 -91 -37q-26 -26 -26 -66v-1q0 -41 26 -92q11 -24 18 -39h164v-1v-68v-1h-147h1v-10q0 -81 -83 -176h5q68 0 115 -46q40 -34 77 -34q52 0 115 66v0q13 -12 50 -48q-81 -87 -166 -87
q-64 0 -124 52q-18 16 -28 20q-18 7 -39 7q-49 0 -116 -40q-5 -3 -14 -10q-11 14 -43 55q29 25 50 45q43 40 56 56q75 83 75 139v4v7h-115v1v68v1h90q-14 28 -22 48q-15 43 -15 80v7q0 48 26 88q5 9 21 25q64 57 140 57z" />
    <glyph glyph-name="currency" unicode="&#xa4;" horiz-adv-x="669" 
d="M104 373v-5q0 -67 39 -127q9 -13 22 -29q22 -20 30 -26q22 -17 45 -27q45 -20 96 -20q81 0 148 53q22 20 31 32q10 13 17 24q35 57 35 120v4q0 66 -38 125q-9 15 -27 34q-21 20 -30 26q-19 14 -41 24q-47 21 -96 21q-75 0 -139 -46l-27 -24q-18 -20 -27 -35
q-9 -13 -14 -25q-24 -49 -24 -99zM336 672q97 0 179 -59l12 -9q16 16 62 64v0v0q13 -12 51 -48q-16 -17 -64 -67q20 -28 32 -52q29 -63 29 -130q0 -91 -51 -170q-2 -3 -7 -9q16 -16 61 -63q-17 -16 -51 -49q-14 15 -58 60q-30 -24 -59 -40q-66 -32 -133 -32h-7
q-68 0 -135 33q-17 10 -39 25q-6 5 -18 14q-15 -15 -58 -60q-13 13 -50 49q15 16 60 63q-21 30 -29 49q-30 62 -30 130q0 89 51 166q4 5 11 16q-16 17 -63 67q49 48 50 48q21 -21 62 -64q19 15 33 23q74 45 159 45z" />
    <glyph glyph-name="yen" unicode="&#xa5;" horiz-adv-x="585" 
d="M84 676q4 -4 116 -136l93 -111q26 30 102 120q26 32 107 127q13 -11 54 -45q-36 -43 -144 -170q-21 -24 -84 -98v-34h169v-69v0h-169v-35h169v-1v-68v-1h-169v-154h-69v154h-169l-1 1v68l1 1h169v35h-169h-1v69h170v33q-38 45 -152 179q-19 22 -75 90q13 11 52 45z" />
    <glyph glyph-name="brokenbar" unicode="&#xa6;" horiz-adv-x="270" 
d="M100 -250v325h70v-325h-70zM100 425v325h70v-325h-70z" />
    <glyph glyph-name="section" unicode="&#xa7;" horiz-adv-x="439" 
d="M129 365v-1q0 -36 32 -63q27 -20 59 -20h2q37 0 66 27q25 24 25 56v1q0 33 -28 59q-28 24 -65 24q-36 0 -65 -25q-26 -26 -26 -58zM224 731q72 0 121 -53q19 -22 26 -38q-63 -30 -64 -30q-4 10 -13 19q-28 32 -70 32q-32 0 -57 -15q-31 -21 -31 -53v-1q0 -25 22 -40
q13 -11 45 -23q27 -9 64 -17q49 -15 80 -51q13 -17 20 -29q16 -33 16 -64v-7q0 -38 -24 -77q-18 -27 -43 -44q12 -7 25 -20q35 -35 35 -81v-6q0 -37 -23 -71q-5 -8 -19 -22q-26 -23 -56 -32q-30 -10 -56 -10h-8q-43 0 -84 25q-40 26 -59 66q21 10 64 30q4 -9 12 -19
q28 -32 69 -32h3q31 0 57 16q30 20 30 52v0q0 25 -21 40q-7 6 -14 9q-20 12 -56 23q-16 4 -38 8q-21 7 -33 13q-15 7 -36 26q-15 14 -20 22q-29 41 -29 84v7q0 36 22 74q7 11 19 25q15 14 25 21q-60 39 -60 104q0 52 38 92q21 20 37 27q38 20 84 20z" />
    <glyph glyph-name="dieresis" unicode="&#xa8;" horiz-adv-x="512" 
d="M171 912q21 0 37 -16q13 -16 13 -32v-3q0 -20 -17 -36q-15 -13 -33 -13v0q-26 0 -43 24q-7 13 -7 24v4q0 20 16 36q15 12 34 12zM341 912q22 0 38 -16q12 -16 12 -32v-3q0 -20 -16 -36q-15 -13 -34 -13h-1q-25 0 -41 24q-8 13 -8 24v4q0 20 17 36q15 12 33 12z" />
    <glyph glyph-name="copyright" unicode="&#xa9;" horiz-adv-x="956" 
d="M478 732q121 0 223 -70q19 -13 44 -36q27 -25 32 -33q19 -22 30 -39q62 -99 62 -213q0 -112 -60 -209q-13 -21 -37 -48t-40 -40q-25 -21 -43 -32q-98 -62 -211 -62q-114 0 -213 63q-21 14 -48 37q-28 26 -33 34q-27 32 -39 52q-15 24 -26 52q-31 74 -31 148v11
q0 73 31 149q13 30 34 64q14 18 34 41q26 28 37 36q28 24 51 38q95 57 203 57zM156 341v-1q0 -99 58 -184q11 -15 29 -35q20 -20 29 -26q21 -19 43 -31q77 -44 162 -44h3q92 0 174 52q13 7 30 21q8 7 32 30l9 12q19 23 31 44q44 76 44 161q0 102 -60 188q-12 16 -33 40
q-27 25 -46 37q-84 58 -183 58q-100 0 -186 -59q-14 -10 -40 -35q-24 -24 -33 -38q-13 -19 -23 -36q-40 -73 -40 -154zM491 583h13q73 0 141 -55q32 -32 43 -50q-19 -13 -58 -39q-31 48 -88 67q-21 6 -41 6h-8q-60 0 -110 -51q-46 -53 -46 -120v-2q0 -71 54 -126
q48 -44 106 -44q74 0 127 66q2 3 7 9q14 -9 58 -37q-42 -68 -122 -96q-36 -11 -70 -11q-86 0 -156 64q-74 76 -74 175v5q0 99 73 175q71 64 151 64z" />
    <glyph glyph-name="ordfeminine" unicode="&#xaa;" horiz-adv-x="324" 
 />
    <glyph glyph-name="guillemotleft" unicode="&#xab;" horiz-adv-x="621" 
d="M59 193v54q34 23 138 91q14 9 56 37q39 -58 39 -59l-147 -96q140 -92 147 -96q-13 -19 -39 -58q-1 0 -21 14q-38 24 -112 73q-15 10 -61 40zM301 193v54q35 23 139 91q14 9 56 37q39 -58 39 -59l-147 -96q140 -92 147 -96q-13 -19 -39 -58l-21 14q-38 24 -112 73
q-15 10 -62 40z" />
    <glyph glyph-name="logicalnot" unicode="&#xac;" horiz-adv-x="500" 
d="M355 335h-280v70h350v-230h-70v160z" />
    <glyph glyph-name="uni00ad" unicode="&#xad;" horiz-adv-x="432" 
d="M38 280h353v-70h-353v70z" />
    <glyph glyph-name="registered" unicode="&#xae;" horiz-adv-x="607" 
d="M304 732q67 0 123 -39q10 -6 25 -20q14 -13 17 -17q11 -13 16 -23q35 -54 35 -117q0 -62 -33 -116q-7 -12 -20 -27q-14 -14 -23 -22q-14 -11 -24 -18q-55 -33 -116 -33q-64 0 -119 35q-11 7 -25 20q-16 14 -20 18q-14 19 -20 30q-9 13 -16 28q-16 41 -16 82v6q0 41 17 83
q7 16 19 34q7 11 19 24q14 16 20 20q16 13 28 20q53 32 113 32zM114 516v-1q0 -58 34 -108q7 -9 17 -20q12 -12 17 -16q13 -11 25 -19q45 -25 96 -25h1q55 0 103 30q8 4 17 13q5 3 20 18q1 2 5 7q11 13 18 25q26 45 26 96q0 59 -36 110q-6 10 -19 23q-16 15 -26 22
q-50 34 -108 34q-60 0 -110 -34q-9 -7 -23 -21q-15 -14 -20 -22q-7 -12 -14 -22q-23 -42 -23 -90zM260 629v-120h49q14 0 23 5q20 9 30 29q6 13 6 25v8q0 18 -12 33q-5 7 -9 8q-15 12 -35 12h-52zM232 656h79q20 0 39 -10q7 -3 15 -10l10 -10q6 -8 9 -14q4 -7 5 -13
q3 -11 3 -27v0q0 -21 -7 -37q-2 -7 -6 -14q-15 -22 -39 -32q15 -30 44 -90l12 -24h-32l-3 7q-2 5 -24 50l-24 51h-4h-51v-108h-26v281z" />
    <glyph glyph-name="macron" unicode="&#xaf;" horiz-adv-x="335" 
 />
    <glyph glyph-name="degree" unicode="&#xb0;" horiz-adv-x="438" 
d="M127 571v-1q0 -33 29 -54q17 -12 38 -12q31 0 54 25q12 20 12 41q0 33 -28 55q-17 12 -38 12h-1q-30 0 -52 -25q-14 -20 -14 -41zM191 715h5q40 0 76 -23q11 -8 27 -22q38 -43 38 -100q0 -60 -45 -106q-44 -37 -98 -37q-58 0 -102 42q-19 18 -24 29q-19 35 -19 70v5
q0 41 26 79q16 23 39 39q38 24 77 24z" />
    <glyph glyph-name="plusminus" unicode="&#xb1;" horiz-adv-x="431" 
d="M38 0h355v-70h-355v70zM180 280v143h71v-143h142v-70h-142v-142h-71v142h-142v70h142z" />
    <glyph glyph-name="twosuperior" unicode="&#xb2;" horiz-adv-x="507" 
 />
    <glyph glyph-name="threesuperior" unicode="&#xb3;" horiz-adv-x="507" 
 />
    <glyph glyph-name="acute" unicode="&#xb4;" horiz-adv-x="444" 
d="M323 903q-42 -25 -165 -102q-9 15 -37 59q41 26 165 102q9 -15 37 -59z" />
    <glyph glyph-name="mu" unicode="&#xb5;" horiz-adv-x="576" 
d="M150 36v-236h-1h-69v0v675h1v1h67l1 -1h1v-300q0 -79 84 -100q17 -5 57 -5q50 0 76 14q38 18 52 51q6 23 6 45v293q0 1 1 2h67q1 0 2 -2v-465l-2 -1h-67l-1 1v47q-55 -55 -138 -55q-88 0 -137 36z" />
    <glyph glyph-name="paragraph" unicode="&#xb6;" horiz-adv-x="560" 
d="M367 50v558h-83v-558h-70v282q-67 9 -110 48q-51 48 -51 123q0 78 54 126t143 48h222v-69h-35v-558h-70z" />
    <glyph glyph-name="periodcentered" unicode="&#xb7;" horiz-adv-x="342" 
d="M171 450h1q21 0 37 -18q12 -15 12 -30v-3q0 -22 -18 -38q-15 -11 -32 -11q-19 0 -35 14q-15 16 -15 34v4q0 19 16 35q15 13 34 13z" />
    <glyph glyph-name="cedilla" unicode="&#xb8;" horiz-adv-x="383" 
d="M211 0q-2 -7 -7 -29l16 -4q20 -7 32 -27q8 -17 8 -35q0 -30 -24 -53q-22 -19 -49 -19q-35 0 -60 30q-4 4 -4 5q13 10 41 30v0q11 -14 23 -14q10 0 17 9q5 6 5 12q0 7 -4 11q-3 4 -10 6q-8 2 -21 -3q-11 -4 -34 -12v0q4 23 18 93h53z" />
    <glyph glyph-name="onesuperior" unicode="&#xb9;" horiz-adv-x="507" 
 />
    <glyph glyph-name="ordmasculine" unicode="&#xba;" horiz-adv-x="359" 
 />
    <glyph glyph-name="guillemotright" unicode="&#xbb;" horiz-adv-x="621" 
d="M501 153q-27 -18 -111 -73q-21 -14 -22 -14q-13 19 -38 58q6 4 146 96q-49 32 -146 96q0 1 38 59q19 -13 56 -37q35 -23 139 -91v-54q-15 -10 -62 -40zM259 153q-28 -18 -112 -73q-21 -14 -22 -14q-13 19 -38 58q6 4 146 96q-49 32 -146 96q0 1 38 59q19 -13 56 -37
q35 -23 139 -91v-54q-15 -10 -61 -40z" />
    <glyph glyph-name="onequarter" unicode="&#xbc;" horiz-adv-x="854" 
 />
    <glyph glyph-name="onehalf" unicode="&#xbd;" horiz-adv-x="982" 
 />
    <glyph glyph-name="threequarters" unicode="&#xbe;" horiz-adv-x="854" 
 />
    <glyph glyph-name="questiondown" unicode="&#xbf;" horiz-adv-x="512" 
d="M252 652h-1q-26 0 -43 23q-7 13 -7 25v3q0 21 19 37q13 12 32 12q20 0 36 -16q13 -16 13 -35q0 -24 -21 -40q-13 -9 -28 -9zM250 0h-7q-50 0 -98 28q-13 8 -32 25q-21 23 -28 33q-12 17 -21 38q-17 43 -17 83v6q0 43 22 92q9 19 23 38q7 9 24 26q19 18 43 35q18 13 36 29
q21 19 21 42v63v59v1h70q0 -20 1 -79v-43q0 -53 -43 -93q-21 -19 -47 -38q-19 -13 -33 -26q-17 -19 -21 -26q-8 -13 -15 -28q-11 -29 -11 -54v-1q0 -54 35 -96q16 -17 21 -19q34 -25 73 -25h1q45 0 84 34q15 15 20 23q25 38 25 82v19v0h69h1v-21q0 -51 -26 -102
q-7 -11 -20 -29q-5 -8 -21 -23q-19 -17 -34 -25q-47 -28 -95 -28z" />
    <glyph glyph-name="Agrave" unicode="&#xc0;" horiz-adv-x="676" 
d="M276 962q41 -25 164 -102q-9 -14 -36 -59q-42 25 -165 102q9 15 37 59zM376 732q1 0 16 -38q87 -226 263 -677q2 -4 7 -17h-1h-75q-3 4 -45 113q-21 56 -24 59h-357q-3 -4 -53 -135q-13 -34 -15 -37h-73h-1h-1q72 183 286 732h73zM339 632q-38 -97 -152 -389h304
q-38 97 -152 389v0z" />
    <glyph glyph-name="Aacute" unicode="&#xc1;" horiz-adv-x="676" 
d="M239 860q41 25 165 102q9 -15 36 -59q-41 -26 -164 -102q-10 15 -37 59zM376 732q1 0 16 -38q87 -226 263 -677q2 -4 7 -17h-1h-75q-3 4 -45 113q-21 56 -24 59h-357q-3 -4 -53 -135q-13 -34 -15 -37h-73h-1h-1q72 183 286 732h73zM339 632q-38 -97 -152 -389h304
q-38 97 -152 389v0z" />
    <glyph glyph-name="Acircumflex" unicode="&#xc2;" horiz-adv-x="676" 
d="M317 968h45q2 -1 51 -60q18 -21 52 -62q-13 -11 -53 -45q-1 1 -24 29q-47 54 -48 56q-24 -28 -72 -85v0q-14 11 -53 45v1q25 30 102 121zM376 732q1 0 16 -38q87 -226 263 -677q2 -4 7 -17h-1h-75q-3 4 -45 113q-21 56 -24 59h-357q-3 -4 -53 -135q-13 -34 -15 -37h-73
h-1h-1q72 183 286 732h73zM339 632q-38 -97 -152 -389h304q-38 97 -152 389v0z" />
    <glyph glyph-name="Atilde" unicode="&#xc3;" horiz-adv-x="676" 
d="M487 849q-16 -17 -31 -25q-24 -13 -46 -13q-25 0 -71 24q-47 25 -71 25q-20 0 -42 -15q-15 -9 -33 -30v77q15 17 31 25q23 13 44 13q27 0 73 -25q47 -25 69 -25q21 0 43 15q15 9 34 31v-77zM376 732q1 0 16 -38q87 -226 263 -677q2 -4 7 -17h-1h-75q-3 4 -45 113
q-21 56 -24 59h-357q-3 -4 -53 -135q-13 -34 -15 -37h-73h-1h-1q72 183 286 732h73zM339 632q-38 -97 -152 -389h304q-38 97 -152 389v0z" />
    <glyph glyph-name="Adieresis" unicode="&#xc4;" horiz-adv-x="676" 
d="M255 917q21 0 37 -17q13 -15 13 -31v-3q0 -19 -17 -35q-15 -14 -33 -14v0q-26 0 -43 23q-7 14 -7 25v4q0 20 16 36q15 12 34 12zM425 917q22 0 38 -17q12 -15 12 -31v-3q0 -19 -16 -35q-15 -14 -34 -14h-1q-25 0 -41 23q-8 14 -8 25v4q0 20 17 36q15 12 33 12zM376 732
q1 0 16 -38q87 -226 263 -677q2 -4 7 -17h-1h-75q-3 4 -45 113q-21 56 -24 59h-357q-3 -4 -53 -135q-13 -34 -15 -37h-73h-1h-1q72 183 286 732h73zM339 632q-38 -97 -152 -389h304q-38 97 -152 389v0z" />
    <glyph glyph-name="Aring" unicode="&#xc5;" horiz-adv-x="676" 
d="M309 804v0q0 -14 12 -24q9 -7 19 -7q14 0 24 12q6 10 6 19v1q0 11 -9 20q-9 10 -21 10t-21 -9q-10 -10 -10 -22zM339 632q-38 -97 -152 -389h304q-38 97 -152 389v0zM288 742q-8 6 -11 10q-6 9 -9 15q-9 18 -9 34v5q0 23 16 46q2 4 10 12q25 20 54 20h1q28 0 52 -19
q9 -9 12 -13q16 -22 16 -48q0 -32 -24 -57q-1 -2 -4 -5q-8 -6 -16 -10q3 -4 16 -38q87 -226 263 -677q2 -4 7 -17h-1h-75q-3 4 -45 113q-21 56 -24 59h-357q-3 -4 -53 -135q-13 -34 -15 -37h-73h-1h-1q72 183 286 732q-4 3 -15 10z" />
    <glyph glyph-name="AE" unicode="&#xc6;" horiz-adv-x="849" 
d="M440 603q-21 -38 -87 -151q-24 -41 -97 -166h184v317zM443 732h352v-70h-282v-261h225l1 -1v-69h-226v-261h282v-70h-355v216h-224q-1 -1 -12 -21q-36 -62 -108 -184q-1 -3 -6 -11h-73l116 200q27 46 107 184q32 54 127 218q18 32 73 126q1 1 3 4z" />
    <glyph glyph-name="Ccedilla" unicode="&#xc7;" horiz-adv-x="704" 
d="M380 0q-2 -7 -7 -29q8 -2 15 -4q21 -7 32 -27q9 -17 9 -35q0 -30 -24 -53q-22 -19 -50 -19q-35 0 -60 30q-4 4 -4 5q14 10 41 30v0q11 -14 23 -14q10 0 18 9q4 6 4 12q0 7 -3 11t-10 6q-9 1 -21 -3t-35 -12v0q5 24 19 97q-105 19 -189 111q-90 112 -90 249v4
q0 151 105 265q101 99 226 99h5q128 0 230 -104q46 -53 57 -81q-60 -31 -63 -31q-12 24 -33 52q-84 94 -192 94h-3q-113 0 -196 -101q-65 -88 -65 -193v-4q0 -123 84 -216q78 -78 180 -78q110 0 194 98q20 28 32 51q21 -11 62 -32q-11 -31 -60 -87q-102 -100 -231 -100v0z
" />
    <glyph glyph-name="Egrave" unicode="&#xc8;" horiz-adv-x="504" 
d="M204 962q41 -25 165 -102q-9 -14 -37 -59q-41 25 -164 102q9 15 36 59zM87 732h363h1v-69l-1 -1h-294v-261h235l1 -1v-68l-1 -1h-235v-261h294l1 -1v-69h-1h-363h-1v732h1z" />
    <glyph glyph-name="Eacute" unicode="&#xc9;" horiz-adv-x="504" 
d="M87 732h363h1v-69l-1 -1h-294v-261h235l1 -1v-68l-1 -1h-235v-261h294l1 -1v-69h-1h-363h-1v732h1zM369 903q-41 -25 -165 -102q-9 15 -36 59q41 26 164 102q10 -15 37 -59z" />
    <glyph glyph-name="Ecircumflex" unicode="&#xca;" horiz-adv-x="504" 
d="M246 968h45q1 -1 51 -60q17 -21 51 -62q-13 -11 -53 -45q-1 1 -24 29q-47 54 -48 56q-24 -28 -72 -85v0q-13 11 -53 45v1q26 30 103 121zM87 732h363h1v-69l-1 -1h-294v-261h235l1 -1v-68l-1 -1h-235v-261h294l1 -1v-69h-1h-363h-1v732h1z" />
    <glyph glyph-name="Edieresis" unicode="&#xcb;" horiz-adv-x="504" 
d="M353 917q22 0 38 -17q13 -15 13 -31v-3q0 -19 -17 -35q-15 -14 -34 -14v0q-25 0 -42 23q-7 14 -7 25v4q0 20 16 36q15 12 33 12zM87 732h363h1v-69l-1 -1h-294v-261h235l1 -1v-68l-1 -1h-235v-261h294l1 -1v-69h-1h-363h-1v732h1zM184 917q21 0 37 -17q12 -15 12 -31v-3
q0 -19 -16 -35q-15 -14 -33 -14h-1q-26 0 -42 23q-8 14 -8 25v4q0 20 17 36q15 12 34 12z" />
    <glyph glyph-name="Igrave" unicode="&#xcc;" horiz-adv-x="242" 
d="M87 732h69v0v-732v0h-69h-1v732h1zM65 952l148 -92q-9 -14 -37 -59l-148 92q10 15 37 59z" />
    <glyph glyph-name="Iacute" unicode="&#xcd;" horiz-adv-x="242" 
d="M87 732h69v0v-732v0h-69h-1v732h1zM213 893l-148 -92q-9 15 -37 59q38 23 149 92q9 -15 36 -59z" />
    <glyph glyph-name="Icircumflex" unicode="&#xce;" horiz-adv-x="242" 
d="M87 732h69v0v-732v0h-69h-1v732h1zM99 968h44q1 -1 52 -60q17 -21 51 -62q-13 -11 -53 -45q-1 1 -25 29q-46 54 -47 56q-24 -28 -72 -85h-1q-13 11 -52 45v1q25 30 103 121z" />
    <glyph glyph-name="Idieresis" unicode="&#xcf;" horiz-adv-x="242" 
d="M87 732h69v0v-732v0h-69h-1v732h1zM36 917q21 0 37 -17q13 -15 13 -31v-3q0 -19 -17 -35q-14 -14 -33 -14v0q-26 0 -43 23q-7 14 -7 25v4q0 20 17 36q14 12 33 12zM206 917q22 0 38 -17q12 -15 12 -31v-3q0 -19 -16 -35q-16 -14 -34 -14h-1q-25 0 -41 23q-8 14 -8 25v4
q0 20 16 36q16 12 34 12z" />
    <glyph glyph-name="Eth" unicode="&#xd0;" horiz-adv-x="692" 
d="M183 401h93v-70h-93v-261h98q156 0 247 133q47 78 47 163q0 129 -98 223q-30 26 -56 40q-64 33 -130 33h-108v-261zM112 331h-56v70h56v330q1 0 2 1h177q125 0 228 -87q46 -44 57 -63q69 -98 69 -216q0 -143 -101 -254q-106 -112 -263 -112h-167l-2 1v330z" />
    <glyph glyph-name="Ntilde" unicode="&#xd1;" horiz-adv-x="711" 
d="M502 849q-15 -17 -30 -25q-24 -13 -47 -13q-24 0 -71 24q-46 25 -70 25q-20 0 -43 -15q-14 -9 -33 -30v77q16 17 31 25q24 13 45 13q26 0 73 -25q46 -25 68 -25q21 0 43 15q16 9 34 31v-77zM88 732h85q4 -4 268 -436q38 -62 113 -185h1v620l1 1h68l1 -1v-730l-1 -1h-83
q-7 8 -37 60q-3 3 -268 437q-25 42 -76 124v-620q-1 0 -2 -1h-70q-1 0 -2 1v730z" />
    <glyph glyph-name="Ograve" unicode="&#xd2;" horiz-adv-x="772" 
d="M324 962q41 -25 165 -102q-9 -14 -37 -59q-41 25 -164 102q9 15 36 59zM387 732h2q128 0 230 -97q37 -41 50 -64q58 -94 58 -203v-4q0 -151 -107 -265q-101 -99 -232 -99q-128 0 -230 97q-45 49 -55 71q-54 92 -54 195v6q0 134 89 244q35 39 51 50q92 69 198 69zM120 368
v-4q0 -122 86 -216q81 -78 182 -78q120 0 206 106q62 87 62 188v4q0 122 -86 216q-81 78 -182 78q-114 0 -199 -97q-69 -88 -69 -197z" />
    <glyph glyph-name="Oacute" unicode="&#xd3;" horiz-adv-x="772" 
d="M489 903q-41 -25 -165 -102q-9 15 -36 59q41 26 164 102q10 -15 37 -59zM387 732h2q128 0 230 -97q37 -41 50 -64q58 -94 58 -203v-4q0 -151 -107 -265q-101 -99 -232 -99q-128 0 -230 97q-45 49 -55 71q-54 92 -54 195v6q0 134 89 244q35 39 51 50q92 69 198 69z
M120 368v-4q0 -122 86 -216q81 -78 182 -78q120 0 206 106q62 87 62 188v4q0 122 -86 216q-81 78 -182 78q-114 0 -199 -97q-69 -88 -69 -197z" />
    <glyph glyph-name="Ocircumflex" unicode="&#xd4;" horiz-adv-x="772" 
d="M366 968h45q1 -1 51 -60q17 -21 51 -62q-13 -11 -53 -45q-1 1 -24 29q-47 54 -48 56q-24 -28 -72 -85v0q-13 11 -53 45v1q26 30 103 121zM387 732h2q128 0 230 -97q37 -41 50 -64q58 -94 58 -203v-4q0 -151 -107 -265q-101 -99 -232 -99q-128 0 -230 97q-45 49 -55 71
q-54 92 -54 195v6q0 134 89 244q35 39 51 50q92 69 198 69zM120 368v-4q0 -122 86 -216q81 -78 182 -78q120 0 206 106q62 87 62 188v4q0 122 -86 216q-81 78 -182 78q-114 0 -199 -97q-69 -88 -69 -197z" />
    <glyph glyph-name="Otilde" unicode="&#xd5;" horiz-adv-x="772" 
d="M535 849q-15 -17 -31 -25q-23 -13 -45 -13q-25 0 -72 24q-46 25 -70 25q-20 0 -42 -15q-15 -9 -34 -30v77q16 17 31 25q24 13 45 13q26 0 73 -25q46 -25 69 -25q20 0 42 15q15 9 34 31v-77zM387 732h2q128 0 230 -97q37 -41 50 -64q58 -94 58 -203v-4q0 -151 -107 -265
q-101 -99 -232 -99q-128 0 -230 97q-45 49 -55 71q-54 92 -54 195v6q0 134 89 244q35 39 51 50q92 69 198 69zM120 368v-4q0 -122 86 -216q81 -78 182 -78q120 0 206 106q62 87 62 188v4q0 122 -86 216q-81 78 -182 78q-114 0 -199 -97q-69 -88 -69 -197z" />
    <glyph glyph-name="Odieresis" unicode="&#xd6;" horiz-adv-x="772" 
d="M303 917q21 0 37 -17q13 -15 13 -31v-3q0 -19 -17 -35q-15 -14 -33 -14v0q-26 0 -43 23q-7 14 -7 25v4q0 20 16 36q15 12 34 12zM473 917q22 0 38 -17q12 -15 12 -31v-3q0 -19 -16 -35q-15 -14 -34 -14h-1q-25 0 -41 23q-8 14 -8 25v4q0 20 17 36q15 12 33 12zM387 732h2
q128 0 230 -97q37 -41 50 -64q58 -94 58 -203v-4q0 -151 -107 -265q-101 -99 -232 -99q-128 0 -230 97q-45 49 -55 71q-54 92 -54 195v6q0 134 89 244q35 39 51 50q92 69 198 69zM120 368v-4q0 -122 86 -216q81 -78 182 -78q120 0 206 106q62 87 62 188v4q0 122 -86 216
q-81 78 -182 78q-114 0 -199 -97q-69 -88 -69 -197z" />
    <glyph glyph-name="multiply" unicode="&#xd7;" horiz-adv-x="396" 
d="M149 244q-25 25 -101 100q12 13 49 50q26 -25 102 -101q25 25 100 101q12 -12 49 -50l-100 -100q25 -26 100 -101q-12 -13 -49 -50q-25 25 -100 101q-26 -25 -102 -101q-12 12 -49 50z" />
    <glyph glyph-name="Oslash" unicode="&#xd8;" horiz-adv-x="772" 
d="M513 628q-57 34 -125 34q-114 0 -199 -97q-69 -88 -69 -197v-4q0 -122 86 -216l6 -6q101 162 301 486zM568 585l-300 -484q56 -31 120 -31q120 0 206 106q62 87 62 188v4q0 122 -86 216q-1 1 -2 1zM551 687q14 23 57 92v1q15 -9 59 -35v-1q-16 -24 -61 -98q6 -6 13 -11
q37 -41 50 -64q58 -94 58 -203v-4q0 -151 -107 -265q-101 -99 -232 -99q-84 0 -157 41q-16 -25 -47 -76v0q-15 9 -59 35v0q12 21 50 81q-8 8 -17 16q-45 49 -55 71q-54 92 -54 195v6q0 134 89 244q35 39 51 50q92 69 198 69h2q87 0 162 -45z" />
    <glyph glyph-name="Ugrave" unicode="&#xd9;" horiz-adv-x="693" 
d="M283 962q41 -25 165 -102q-10 -14 -37 -59q-42 25 -165 102q9 15 37 59zM87 732h66q1 0 2 -1v-469q0 -117 84 -173q37 -19 73 -19h69q76 0 125 70q33 51 33 129v462l1 1h68l1 -1v-462q0 -162 -116 -237q-53 -32 -110 -32h-72q-84 0 -151 64q-75 78 -75 197v470z" />
    <glyph glyph-name="Uacute" unicode="&#xda;" horiz-adv-x="693" 
d="M448 903q-42 -25 -165 -102q-9 15 -37 59q41 26 165 102q9 -15 37 -59zM87 732h66q1 0 2 -1v-469q0 -117 84 -173q37 -19 73 -19h69q76 0 125 70q33 51 33 129v462l1 1h68l1 -1v-462q0 -162 -116 -237q-53 -32 -110 -32h-72q-84 0 -151 64q-75 78 -75 197v470z" />
    <glyph glyph-name="Ucircumflex" unicode="&#xdb;" horiz-adv-x="693" 
d="M324 968h45q2 -1 51 -60q18 -21 52 -62q-13 -11 -53 -45q-2 1 -24 29q-47 54 -48 56q-24 -28 -72 -85v0q-14 11 -54 45v1q26 30 103 121zM87 732h66q1 0 2 -1v-469q0 -117 84 -173q37 -19 73 -19h69q76 0 125 70q33 51 33 129v462l1 1h68l1 -1v-462q0 -162 -116 -237
q-53 -32 -110 -32h-72q-84 0 -151 64q-75 78 -75 197v470z" />
    <glyph glyph-name="Udieresis" unicode="&#xdc;" horiz-adv-x="693" 
d="M262 917q22 0 38 -17q12 -15 12 -31v-3q0 -19 -16 -35q-16 -14 -34 -14h-1q-25 0 -41 23q-8 14 -8 25v4q0 20 16 36q16 12 34 12zM432 917q21 0 37 -17q13 -15 13 -31v-3q0 -19 -17 -35q-14 -14 -33 -14v0q-26 0 -43 23q-7 14 -7 25v4q0 20 17 36q14 12 33 12zM87 732h66
q1 0 2 -1v-469q0 -117 84 -173q37 -19 73 -19h69q76 0 125 70q33 51 33 129v462l1 1h68l1 -1v-462q0 -162 -116 -237q-53 -32 -110 -32h-72q-84 0 -151 64q-75 78 -75 197v470z" />
    <glyph glyph-name="Yacute" unicode="&#xdd;" horiz-adv-x="596" 
d="M400 903q-41 -25 -164 -102q-10 15 -37 59q41 26 165 102q9 -15 36 -59zM15 732h86q9 -12 195 -299q1 0 3 -2q50 75 198 301h85l2 -1l-248 -372v-358l-1 -1h-72l-1 1v358q-62 93 -247 372v1z" />
    <glyph glyph-name="Thorn" unicode="&#xde;" horiz-adv-x="653" 
d="M147 137v-137h-1h-69h-1v732h1h69h1v-137h218q123 0 191 -65q17 -19 23 -28q11 -17 17 -32q13 -34 13 -69v-70q0 -50 -26 -96q-33 -53 -101 -79q-52 -19 -111 -19h-224zM147 526v-320h221q88 0 136 42q36 34 36 85v65q0 57 -43 91q-11 9 -19 14q-13 6 -35 13
q-33 10 -83 10h-213z" />
    <glyph glyph-name="germandbls" unicode="&#xdf;" horiz-adv-x="652" 
d="M276 732h6q99 0 161 -48q46 -41 46 -99q0 -62 -56 -133q-31 -48 -31 -68v-4q0 -33 78 -70q38 -22 76 -58q48 -51 48 -101v-10q0 -51 -49 -102q-64 -58 -145 -58h-1q-112 0 -184 114v2q15 9 59 35q52 -80 126 -80q57 0 101 42q24 29 24 49v5q0 56 -125 120q-78 48 -78 111
v5q0 53 65 139q22 34 22 62q0 64 -117 76h-22h-4q-91 0 -123 -70q-6 -18 -6 -26v-564q-1 0 -2 -1h-67l-2 1v568q0 32 31 82q58 81 169 81z" />
    <glyph glyph-name="agrave" unicode="&#xe0;" 
d="M215 705q41 -25 165 -101q-10 -15 -37 -60q-42 26 -165 102q9 15 37 59zM283 480q98 0 157 -81q0 -1 1 -3v0v78q1 0 2 2h67q0 -1 2 -2v-473q-1 0 -2 -1h-67q-1 0 -2 1v78v0q-54 -83 -163 -83v0h-1q-97 0 -170 77q-61 74 -61 162v5q0 95 67 168q71 72 170 72zM116 240v-3
q0 -84 67 -138q42 -33 93 -33q109 0 151 106q10 32 10 63v10q0 44 -27 91q-47 73 -126 73q-105 0 -153 -100q-15 -36 -15 -69z" />
    <glyph glyph-name="aacute" unicode="&#xe1;" 
d="M178 603q41 26 165 102q9 -15 37 -60q-42 -25 -165 -101q-10 15 -37 59zM283 480q98 0 157 -81q0 -1 1 -3v0v78q1 0 2 2h67q0 -1 2 -2v-473q-1 0 -2 -1h-67q-1 0 -2 1v78v0q-54 -83 -163 -83v0h-1q-97 0 -170 77q-61 74 -61 162v5q0 95 67 168q71 72 170 72zM116 240v-3
q0 -84 67 -138q42 -33 93 -33q109 0 151 106q10 32 10 63v10q0 44 -27 91q-47 73 -126 73q-105 0 -153 -100q-15 -36 -15 -69z" />
    <glyph glyph-name="acircumflex" unicode="&#xe2;" 
d="M256 711h44q1 -2 52 -61q17 -21 51 -62q-13 -11 -53 -44q-2 0 -25 28q-46 55 -47 56l-72 -84h-1q-13 11 -53 44v1q26 30 104 122zM283 480q98 0 157 -81q0 -1 1 -3v0v78q1 0 2 2h67q0 -1 2 -2v-473q-1 0 -2 -1h-67q-1 0 -2 1v78v0q-54 -83 -163 -83v0h-1q-97 0 -170 77
q-61 74 -61 162v5q0 95 67 168q71 72 170 72zM116 240v-3q0 -84 67 -138q42 -33 93 -33q109 0 151 106q10 32 10 63v10q0 44 -27 91q-47 73 -126 73q-105 0 -153 -100q-15 -36 -15 -69z" />
    <glyph glyph-name="atilde" unicode="&#xe3;" 
d="M427 592q-16 -17 -31 -25q-24 -13 -46 -13q-25 0 -71 24q-47 25 -71 25q-20 0 -43 -15q-14 -9 -33 -31v78q16 17 31 25q24 13 45 13q26 0 73 -25q47 -24 69 -24q21 0 43 13q15 10 34 32v-77zM283 480q98 0 157 -81q0 -1 1 -3v0v78q1 0 2 2h67q0 -1 2 -2v-473q-1 0 -2 -1
h-67q-1 0 -2 1v78v0q-54 -83 -163 -83v0h-1q-97 0 -170 77q-61 74 -61 162v5q0 95 67 168q71 72 170 72zM116 240v-3q0 -84 67 -138q42 -33 93 -33q109 0 151 106q10 32 10 63v10q0 44 -27 91q-47 73 -126 73q-105 0 -153 -100q-15 -36 -15 -69z" />
    <glyph glyph-name="adieresis" unicode="&#xe4;" 
d="M194 660q22 0 38 -17q12 -15 12 -31v-4q0 -20 -16 -36q-16 -12 -34 -12h-1q-25 0 -41 23q-8 13 -8 25v4q0 19 16 35q16 13 34 13zM364 660q21 0 37 -17q13 -15 13 -31v-4q0 -20 -17 -36q-14 -12 -33 -12v0q-26 0 -43 23q-7 13 -7 25v4q0 19 17 35q14 13 33 13zM283 480
q98 0 157 -81q0 -1 1 -3v0v78q1 0 2 2h67q0 -1 2 -2v-473q-1 0 -2 -1h-67q-1 0 -2 1v78v0q-54 -83 -163 -83v0h-1q-97 0 -170 77q-61 74 -61 162v5q0 95 67 168q71 72 170 72zM116 240v-3q0 -84 67 -138q42 -33 93 -33q109 0 151 106q10 32 10 63v10q0 44 -27 91
q-47 73 -126 73q-105 0 -153 -100q-15 -36 -15 -69z" />
    <glyph glyph-name="aring" unicode="&#xe5;" 
d="M252 620v0q0 -13 11 -21q8 -7 17 -7q12 0 20 11q6 8 6 17v0q0 11 -7 19q-9 8 -19 8q-12 0 -20 -8t-8 -19zM279 700h1q28 0 52 -20q9 -8 12 -12q16 -23 16 -48q0 -33 -24 -58q-2 -2 -4 -5q-24 -18 -53 -18q-28 0 -52 18q-7 7 -10 11q-6 8 -9 15q-9 17 -9 34v4q0 24 15 46
q3 5 11 13q24 20 54 20zM283 480q98 0 157 -81q0 -1 1 -3v0v78q1 0 2 2h67q0 -1 2 -2v-473q-1 0 -2 -1h-67q-1 0 -2 1v78v0q-54 -83 -163 -83v0h-1q-97 0 -170 77q-61 74 -61 162v5q0 95 67 168q71 72 170 72zM116 240v-3q0 -84 67 -138q42 -33 93 -33q109 0 151 106
q10 32 10 63v10q0 44 -27 91q-47 73 -126 73q-105 0 -153 -100q-15 -36 -15 -69z" />
    <glyph glyph-name="ae" unicode="&#xe6;" horiz-adv-x="952" 
d="M116 240v-3q0 -84 67 -138q42 -33 93 -33q109 0 151 106q10 32 10 63v10q0 44 -27 91q-47 73 -126 73q-105 0 -153 -100q-15 -36 -15 -69zM536 289h299q-22 66 -71 96q-37 24 -80 24q-73 0 -124 -68q-16 -24 -24 -52zM512 81v-80q-1 0 -2 -1h-67q-1 0 -2 1v78v0
q-54 -83 -163 -83v0h-1q-97 0 -170 77q-61 74 -61 162v5q0 95 67 168q71 72 170 72q98 0 157 -81q0 -1 1 -3v0v78q1 0 2 2h67q0 -1 2 -2v-82q8 12 18 22q67 66 157 66q102 0 176 -92q49 -71 49 -139v-6q0 -23 -4 -23h-379q0 -24 20 -68q30 -56 87 -77q27 -10 49 -10
q68 0 119 60q17 24 23 39h1q40 -16 63 -28q-11 -31 -49 -73q-69 -67 -157 -67q-101 0 -173 85z" />
    <glyph glyph-name="ccedilla" unicode="&#xe7;" horiz-adv-x="500" 
d="M265 -4q-1 -7 -5 -25q8 -2 15 -4q21 -7 32 -27q9 -17 9 -35q0 -30 -24 -53q-23 -19 -51 -19q-34 0 -60 30q-4 4 -4 5l42 30v0q10 -14 22 -14q11 0 19 9q4 6 4 12q0 7 -4 11q-3 4 -10 6q-9 1 -21 -3t-34 -12v0q4 24 19 97q-51 15 -95 56q-74 76 -74 175v5q0 99 74 175
q70 64 150 64h13q74 0 141 -55q33 -32 43 -50q-19 -13 -58 -39q-31 48 -88 67q-20 6 -41 6h-8q-60 0 -111 -51q-45 -53 -45 -120v-2q0 -71 54 -126q48 -44 107 -44q72 0 125 65q2 3 7 10q15 -9 60 -37q-44 -68 -124 -96q-36 -11 -68 -11h-11z" />
    <glyph glyph-name="egrave" unicode="&#xe8;" horiz-adv-x="527" 
d="M196 705q41 -25 165 -101q-9 -15 -37 -60q-41 26 -164 102q9 15 36 59zM261 480q103 0 177 -92q49 -71 49 -139v-6q0 -23 -3 -23h-380q0 -24 20 -68q30 -56 87 -77q27 -10 49 -10q68 0 119 60q17 24 22 39h2q40 -16 63 -28q-11 -31 -49 -73q-69 -67 -157 -67
q-104 0 -178 91q-49 69 -49 148v4q0 100 72 175q67 66 156 66zM111 289h298q-21 66 -70 96q-37 24 -80 24q-73 0 -124 -68q-16 -24 -24 -52z" />
    <glyph glyph-name="eacute" unicode="&#xe9;" horiz-adv-x="527" 
d="M361 646q-41 -25 -165 -102l-36 60q41 25 164 101q10 -15 37 -59zM261 480q103 0 177 -92q49 -71 49 -139v-6q0 -23 -3 -23h-380q0 -24 20 -68q30 -56 87 -77q27 -10 49 -10q68 0 119 60q17 24 22 39h2q40 -16 63 -28q-11 -31 -49 -73q-69 -67 -157 -67q-104 0 -178 91
q-49 69 -49 148v4q0 100 72 175q67 66 156 66zM111 289h298q-21 66 -70 96q-37 24 -80 24q-73 0 -124 -68q-16 -24 -24 -52z" />
    <glyph glyph-name="ecircumflex" unicode="&#xea;" horiz-adv-x="527" 
d="M238 711h45q1 -1 51 -60q17 -21 51 -62q-13 -11 -53 -45q-1 1 -24 29q-47 55 -48 56q-24 -28 -72 -85v0q-13 11 -53 45v0q26 31 103 122zM261 480q103 0 177 -92q49 -71 49 -139v-6q0 -23 -3 -23h-380q0 -24 20 -68q30 -56 87 -77q27 -10 49 -10q68 0 119 60q17 24 22 39
h2q40 -16 63 -28q-11 -31 -49 -73q-69 -67 -157 -67q-104 0 -178 91q-49 69 -49 148v4q0 100 72 175q67 66 156 66zM111 289h298q-21 66 -70 96q-37 24 -80 24q-73 0 -124 -68q-16 -24 -24 -52z" />
    <glyph glyph-name="edieresis" unicode="&#xeb;" horiz-adv-x="527" 
d="M175 660q21 0 37 -17q13 -15 13 -31v-4q0 -20 -17 -36q-15 -12 -33 -12v0q-26 0 -43 23q-7 13 -7 25v4q0 19 16 35q15 13 34 13zM345 660q22 0 38 -17q12 -15 12 -31v-4q0 -20 -16 -36q-15 -12 -34 -12h-1q-25 0 -41 23q-8 13 -8 25v4q0 19 17 35q15 13 33 13zM261 480
q103 0 177 -92q49 -71 49 -139v-6q0 -23 -3 -23h-380q0 -24 20 -68q30 -56 87 -77q27 -10 49 -10q68 0 119 60q17 24 22 39h2q40 -16 63 -28q-11 -31 -49 -73q-69 -67 -157 -67q-104 0 -178 91q-49 69 -49 148v4q0 100 72 175q67 66 156 66zM111 289h298q-21 66 -70 96
q-37 24 -80 24q-73 0 -124 -68q-16 -24 -24 -52z" />
    <glyph glyph-name="igrave" unicode="&#xec;" horiz-adv-x="233" 
d="M82 475h69h1v-475h-1h-69h-1v475h1zM52 705q41 -25 165 -101q-9 -15 -37 -60q-41 26 -164 102q9 15 36 59z" />
    <glyph glyph-name="iacute" unicode="&#xed;" horiz-adv-x="233" 
d="M82 475h69h1v-475h-1h-69h-1v475h1zM217 646q-41 -25 -165 -102l-36 60q41 25 164 101q10 -15 37 -59z" />
    <glyph glyph-name="icircumflex" unicode="&#xee;" horiz-adv-x="233" 
d="M82 475h69h1v-475h-1h-69h-1v475h1zM94 711h45q1 -1 51 -60q17 -21 51 -62q-13 -11 -53 -45q-1 1 -24 29q-47 55 -48 56q-24 -28 -72 -85v0q-13 11 -53 45v0q26 31 103 122z" />
    <glyph glyph-name="idieresis" unicode="&#xef;" horiz-adv-x="233" 
d="M82 475h69h1v-475h-1h-69h-1v475h1zM41 660q22 0 38 -17q13 -15 13 -31v-4q0 -20 -17 -36q-15 -12 -34 -12v0q-25 0 -42 23q-7 13 -7 25v4q0 19 16 35q15 13 33 13zM192 660q21 0 37 -17q12 -15 12 -31v-4q0 -20 -16 -36q-15 -12 -33 -12h-1q-26 0 -42 23q-8 13 -8 25v4
q0 19 17 35q15 13 34 13z" />
    <glyph glyph-name="eth" unicode="&#xf0;" horiz-adv-x="569" 
 />
    <glyph glyph-name="ntilde" unicode="&#xf1;" horiz-adv-x="565" 
d="M431 592q-15 -17 -31 -25q-23 -13 -45 -13q-25 0 -72 24q-47 25 -71 25q-20 0 -42 -15q-15 -9 -33 -31v78q15 17 31 25q23 13 44 13q27 0 73 -25q47 -24 70 -24q20 0 42 13q15 10 34 32v-77zM281 475h9q141 0 189 -107q13 -32 13 -68v-299q-1 0 -2 -1h-67q-1 0 -2 1v299
q0 74 -75 99q-18 6 -69 6q-62 0 -93 -26q-37 -24 -37 -83v-295q-1 0 -2 -1h-67l-2 1v466q1 0 2 1h67l2 -1v-47q54 55 134 55z" />
    <glyph glyph-name="ograve" unicode="&#xf2;" horiz-adv-x="552" 
d="M212 705q41 -25 164 -101l-36 -60q-42 26 -165 102q9 15 37 59zM269 479h13q77 0 146 -60q79 -76 79 -182q0 -107 -83 -185q-68 -56 -148 -56q-87 0 -157 64q-74 76 -74 175v5q0 99 74 175q70 64 150 64zM115 237v-2q0 -71 53 -125q48 -45 108 -45q75 0 128 70
q32 49 32 102q0 76 -56 131q-47 40 -101 40h-8q-59 0 -111 -51q-45 -53 -45 -120z" />
    <glyph glyph-name="oacute" unicode="&#xf3;" horiz-adv-x="552" 
d="M365 646q-41 -25 -164 -102q-9 15 -37 60q41 25 165 101q9 -15 36 -59zM269 479h13q77 0 146 -60q79 -76 79 -182q0 -107 -83 -185q-68 -56 -148 -56q-87 0 -157 64q-74 76 -74 175v5q0 99 74 175q70 64 150 64zM115 237v-2q0 -71 53 -125q48 -45 108 -45q75 0 128 70
q32 49 32 102q0 76 -56 131q-47 40 -101 40h-8q-59 0 -111 -51q-45 -53 -45 -120z" />
    <glyph glyph-name="ocircumflex" unicode="&#xf4;" horiz-adv-x="552" 
d="M253 711h45q2 -1 51 -60q18 -21 52 -62q-13 -11 -53 -45q-1 1 -24 29q-47 55 -48 56q-24 -28 -72 -85v0q-14 11 -53 45v0q25 31 102 122zM269 479h13q77 0 146 -60q79 -76 79 -182q0 -107 -83 -185q-68 -56 -148 -56q-87 0 -157 64q-74 76 -74 175v5q0 99 74 175
q70 64 150 64zM115 237v-2q0 -71 53 -125q48 -45 108 -45q75 0 128 70q32 49 32 102q0 76 -56 131q-47 40 -101 40h-8q-59 0 -111 -51q-45 -53 -45 -120z" />
    <glyph glyph-name="otilde" unicode="&#xf5;" horiz-adv-x="552" 
d="M423 592q-15 -17 -31 -25q-23 -13 -45 -13q-25 0 -72 24q-47 25 -71 25q-20 0 -42 -15q-15 -9 -33 -31v78q15 17 31 25q23 13 44 13q27 0 73 -25q47 -24 70 -24q20 0 42 13q15 10 34 32v-77zM269 479h13q77 0 146 -60q79 -76 79 -182q0 -107 -83 -185q-68 -56 -148 -56
q-87 0 -157 64q-74 76 -74 175v5q0 99 74 175q70 64 150 64zM115 237v-2q0 -71 53 -125q48 -45 108 -45q75 0 128 70q32 49 32 102q0 76 -56 131q-47 40 -101 40h-8q-59 0 -111 -51q-45 -53 -45 -120z" />
    <glyph glyph-name="odieresis" unicode="&#xf6;" horiz-adv-x="552" 
d="M191 660q21 0 37 -17q13 -15 13 -31v-4q0 -20 -17 -36q-15 -12 -33 -12v0q-26 0 -43 23q-7 13 -7 25v4q0 19 16 35q15 13 34 13zM361 660q22 0 38 -17q12 -15 12 -31v-4q0 -20 -16 -36q-15 -12 -34 -12h-1q-25 0 -41 23q-8 13 -8 25v4q0 19 17 35q15 13 33 13zM269 479
h13q77 0 146 -60q79 -76 79 -182q0 -107 -83 -185q-68 -56 -148 -56q-87 0 -157 64q-74 76 -74 175v5q0 99 74 175q70 64 150 64zM115 237v-2q0 -71 53 -125q48 -45 108 -45q75 0 128 70q32 49 32 102q0 76 -56 131q-47 40 -101 40h-8q-59 0 -111 -51q-45 -53 -45 -120z" />
    <glyph glyph-name="divide" unicode="&#xf7;" horiz-adv-x="432" 
d="M48 280h336v-70h-336v70zM216 148h1q22 0 38 -18q12 -15 12 -30v-4q0 -21 -19 -37q-14 -11 -32 -11q-19 0 -35 13q-14 16 -14 35v4q0 19 16 35q14 13 33 13zM216 443h1q22 0 38 -18q12 -15 12 -30v-3q0 -22 -19 -38q-14 -11 -32 -11q-19 0 -35 13q-14 16 -14 35v4
q0 18 16 34q14 14 33 14z" />
    <glyph glyph-name="oslash" unicode="&#xf8;" horiz-adv-x="552" 
d="M335 396q-27 12 -56 12h-8q-59 0 -111 -51q-45 -53 -45 -120v-2q0 -71 53 -125q0 -1 1 -1q55 96 166 287zM392 355q-41 -70 -164 -282q23 -8 48 -8q75 0 128 70q32 49 32 102q0 67 -44 118zM371 457q9 17 38 67v1q15 -9 60 -34v-2q-10 -17 -41 -70q79 -77 79 -182
q0 -107 -83 -185q-68 -56 -148 -56q-44 0 -83 16q-12 -20 -34 -60h-1q-15 9 -60 35v0q9 15 35 61q-7 5 -14 12q-74 76 -74 175v5q0 99 74 175q70 64 150 64h13q46 0 89 -22z" />
    <glyph glyph-name="ugrave" unicode="&#xf9;" horiz-adv-x="565" 
d="M217 705q42 -25 166 -101q-10 -15 -38 -60q-41 26 -164 102q9 15 36 59zM76 475h67l1 -2v-298q0 -79 84 -100q16 -5 56 -5q52 0 77 14q39 18 51 51q7 23 7 45v293q0 1 1 2h68l1 -2v-465l-1 -1h-68l-1 1v47q-55 -55 -139 -55q-89 0 -139 38q-67 51 -67 134v301q0 1 2 2z
" />
    <glyph glyph-name="uacute" unicode="&#xfa;" horiz-adv-x="565" 
d="M383 646q-42 -25 -165 -102q-9 15 -37 60q41 25 165 101q9 -15 37 -59zM76 475h67l1 -2v-298q0 -79 84 -100q16 -5 56 -5q52 0 77 14q39 18 51 51q7 23 7 45v293q0 1 1 2h68l1 -2v-465l-1 -1h-68l-1 1v47q-55 -55 -139 -55q-89 0 -139 38q-67 51 -67 134v301q0 1 2 2z
" />
    <glyph glyph-name="ucircumflex" unicode="&#xfb;" horiz-adv-x="565" 
d="M260 711h44q1 -1 52 -60q17 -21 51 -62q-13 -11 -53 -45q-2 1 -25 29q-46 55 -47 56q-24 -28 -72 -85h-1q-13 11 -53 45v0q26 31 104 122zM76 475h67l1 -2v-298q0 -79 84 -100q16 -5 56 -5q52 0 77 14q39 18 51 51q7 23 7 45v293q0 1 1 2h68l1 -2v-465l-1 -1h-68l-1 1v47
q-55 -55 -139 -55q-89 0 -139 38q-67 51 -67 134v301q0 1 2 2z" />
    <glyph glyph-name="udieresis" unicode="&#xfc;" horiz-adv-x="565" 
d="M196 660q22 0 38 -17q13 -15 13 -31v-4q0 -20 -17 -36q-15 -12 -34 -12v0q-25 0 -42 23q-7 13 -7 25v4q0 19 16 35q15 13 33 13zM367 660q21 0 37 -17q12 -15 12 -31v-4q0 -20 -16 -36q-15 -12 -33 -12h-1q-26 0 -42 23q-8 13 -8 25v4q0 19 17 35q15 13 34 13zM76 475h67
l1 -2v-298q0 -79 84 -100q16 -5 56 -5q52 0 77 14q39 18 51 51q7 23 7 45v293q0 1 1 2h68l1 -2v-465l-1 -1h-68l-1 1v47q-55 -55 -139 -55q-89 0 -139 38q-67 51 -67 134v301q0 1 2 2z" />
    <glyph glyph-name="yacute" unicode="&#xfd;" horiz-adv-x="511" 
d="M356 646q-42 -25 -165 -102q-9 15 -37 60q41 25 165 101q9 -15 37 -59zM96 475q1 0 23 -52q45 -108 136 -324q1 2 58 133q103 243 104 243h76v0q-67 -155 -266 -620q-8 -18 -31 -71h-75v1q24 56 95 224q-49 117 -199 466v0h79z" />
    <glyph glyph-name="thorn" unicode="&#xfe;" horiz-adv-x="589" 
d="M151 237v-5q0 -60 44 -116q44 -50 109 -50q100 0 149 91q19 39 19 78v7q0 69 -53 123q-47 44 -107 44q-108 0 -149 -105q-12 -32 -12 -67zM147 -200h-70h-1v932h1h69h1v-336q55 84 162 84q1 0 1 -1h1l1 1q86 0 156 -64q36 -39 51 -72q23 -52 23 -100v-12q0 -92 -70 -168
q-71 -68 -167 -68q-98 0 -157 80q0 1 -1 3v0v-279z" />
    <glyph glyph-name="ydieresis" unicode="&#xff;" horiz-adv-x="511" 
d="M170 660q22 0 38 -17q12 -15 12 -31v-4q0 -20 -16 -36q-16 -12 -34 -12h-1q-25 0 -41 23q-8 13 -8 25v4q0 19 16 35q16 13 34 13zM340 660q21 0 37 -17q13 -15 13 -31v-4q0 -20 -17 -36q-14 -12 -33 -12v0q-26 0 -43 23q-7 13 -7 25v4q0 19 17 35q14 13 33 13zM96 475
q1 0 23 -52q45 -108 136 -324q1 2 58 133q103 243 104 243h76v0q-67 -155 -266 -620q-8 -18 -31 -71h-75v1q24 56 95 224q-49 117 -199 466v0h79z" />
    <glyph glyph-name="dotlessi" unicode="&#x131;" horiz-adv-x="257" 
 />
    <glyph glyph-name="OE" unicode="&#x152;" horiz-adv-x="1106" 
d="M386 732h4q127 0 228 -98q39 -40 51 -64q58 -93 58 -202v-4q0 -151 -107 -265q-101 -99 -232 -99q-128 0 -230 97q-45 49 -55 72q-54 91 -54 193v7q0 134 89 245q36 38 51 49q92 69 197 69zM119 369v-5q0 -122 87 -216q81 -78 182 -78q120 0 206 106q63 87 63 188v4
q0 122 -87 216q-81 78 -182 78q-114 0 -198 -96q-71 -89 -71 -197zM665 732h364v-1v-69v0h-294v-261h235v-1v-69v0h-235v-261h294v-1v-69v0h-364v0v731v1z" />
    <glyph glyph-name="oe" unicode="&#x153;" horiz-adv-x="922" 
d="M269 479h13q77 0 146 -60q78 -76 78 -182q0 -107 -82 -185q-68 -56 -148 -56q-87 0 -157 64q-74 76 -74 174v7q0 97 74 174q70 64 150 64zM115 238v-3q0 -71 53 -125q49 -45 108 -45q75 0 128 70q32 48 32 103q0 75 -56 130q-47 41 -101 41h-8q-59 0 -111 -52
q-45 -52 -45 -119zM670 483q103 0 176 -91q49 -71 49 -139v-6q0 -23 -3 -23h-380q0 -24 20 -68q30 -56 87 -78q27 -9 49 -9q69 0 119 60q17 24 23 38h1q40 -16 63 -27q-11 -31 -49 -73q-69 -68 -156 -68q-105 0 -179 92q-48 69 -48 147v5q0 100 71 175q67 65 157 65z
M519 293h299q-21 65 -71 96q-36 24 -79 24q-73 0 -125 -68q-16 -24 -24 -52z" />
    <glyph glyph-name="circumflex" unicode="&#x2c6;" horiz-adv-x="492" 
d="M224 968h44q2 -1 52 -60q17 -21 52 -62q-14 -11 -53 -45q-2 1 -25 29q-46 54 -47 56q-24 -28 -72 -85h-1q-13 11 -53 45v1q26 30 103 121z" />
    <glyph glyph-name="caron" unicode="&#x2c7;" horiz-adv-x="376" 
d="M121 923v0q13 11 53 45h1q18 -21 72 -85q1 1 47 56q23 28 25 29q17 -15 53 -45q-13 -15 -52 -62q-50 -59 -52 -60h-44q-26 30 -103 122z" />
    <glyph glyph-name="uni02c9" unicode="&#x2c9;" horiz-adv-x="500" 
d="M121 839v62h258v-62h-258z" />
    <glyph glyph-name="breve" unicode="&#x2d8;" horiz-adv-x="325" 
 />
    <glyph glyph-name="dotaccent" unicode="&#x2d9;" horiz-adv-x="342" 
d="M171 884h1q21 0 37 -17q12 -15 12 -31v-3q0 -21 -18 -37q-15 -12 -32 -12q-19 0 -35 15q-15 16 -15 33v4q0 20 16 36q15 12 34 12z" />
    <glyph glyph-name="ring" unicode="&#x2da;" horiz-adv-x="404" 
d="M172 804v0q0 -14 12 -24q8 -7 17 -7q15 0 25 12q6 10 6 19v1q0 11 -8 20q-10 10 -23 10q-12 0 -21 -9q-8 -10 -8 -22zM201 884h1q29 0 53 -19q9 -9 11 -13q17 -22 17 -48q0 -32 -25 -57q-1 -2 -4 -5q-23 -18 -53 -18q-28 0 -52 18q-6 6 -9 11q-7 8 -11 14q-8 18 -8 34v5
q0 23 15 46l12 12q24 20 53 20z" />
    <glyph glyph-name="ogonek" unicode="&#x2db;" horiz-adv-x="512" 
 />
    <glyph glyph-name="tilde" unicode="&#x2dc;" horiz-adv-x="573" 
d="M464 840q-16 -17 -36 -25q-23 -13 -51 -13q-24 0 -99 25q-76 24 -100 24q-20 0 -47 -14q-15 -10 -35 -31v84q17 17 32 25q29 13 50 13q26 0 102 -25q75 -24 97 -24q26 0 48 14q20 9 39 31v-84z" />
    <glyph glyph-name="hungarumlaut" unicode="&#x2dd;" horiz-adv-x="429" 
 />
    <glyph glyph-name="uni037e" unicode="&#x37e;" horiz-adv-x="254" 
d="M128 475q22 0 38 -17q13 -15 13 -31v-3q0 -20 -17 -36q-15 -13 -34 -13v0q-25 0 -42 23q-7 14 -7 25v4q0 20 16 36q15 12 33 12zM129 96q24 0 40 -21q10 -15 10 -37q0 -62 -74 -126q-20 -19 -25 -21q-7 8 -20 25q50 48 50 84q-18 8 -26 24q-6 11 -6 23q0 25 22 41
q13 8 29 8z" />
    <glyph glyph-name="endash" unicode="&#x2013;" horiz-adv-x="495" 
d="M35 224v60h425v-60h-425z" />
    <glyph glyph-name="emdash" unicode="&#x2014;" horiz-adv-x="675" 
d="M50 269h575v-69h-575v69z" />
    <glyph glyph-name="quoteleft" unicode="&#x2018;" horiz-adv-x="265" 
d="M114 622q-25 0 -41 22q-9 14 -9 36q0 61 73 127q20 17 27 21q6 -9 20 -26q-51 -47 -51 -84q18 -7 26 -24q6 -10 6 -22q0 -25 -22 -42q-13 -8 -29 -8z" />
    <glyph glyph-name="quoteright" unicode="&#x2019;" horiz-adv-x="265" 
d="M151 828q25 0 41 -22q8 -14 8 -37q0 -61 -72 -126q-20 -18 -27 -21q-6 9 -20 26q51 47 51 84q-18 7 -26 24q-6 10 -6 23q0 24 23 41q12 8 28 8z" />
    <glyph glyph-name="quotesinglbase" unicode="&#x201a;" horiz-adv-x="247" 
d="M111 96q25 0 41 -21q8 -15 8 -37q0 -62 -72 -126q-20 -19 -27 -21q-6 8 -20 25q51 48 51 84q-18 8 -26 24q-6 11 -6 23q0 25 23 41q12 8 28 8z" />
    <glyph glyph-name="quotedblleft" unicode="&#x201c;" horiz-adv-x="461" 
d="M129 622q-25 0 -41 22q-8 14 -8 36q0 61 72 127q20 17 27 21q6 -9 20 -26q-51 -47 -51 -84q18 -7 26 -24q6 -10 6 -22q0 -25 -23 -42q-12 -8 -28 -8zM274 622q-25 0 -41 22q-9 14 -9 36q0 61 73 127q20 17 27 21q6 -9 20 -26q-51 -47 -51 -84q18 -7 26 -24q6 -10 6 -22
q0 -25 -22 -42q-13 -8 -29 -8z" />
    <glyph glyph-name="quotedblright" unicode="&#x201d;" horiz-adv-x="461" 
d="M332 828q24 0 40 -22q9 -14 9 -37q0 -61 -73 -126q-20 -18 -25 -21q-7 9 -20 26q50 47 50 84q-18 7 -26 24q-6 10 -6 23q0 24 23 41q12 8 28 8zM187 828q25 0 41 -22q8 -14 8 -37q0 -61 -72 -126q-20 -18 -27 -21q-6 9 -20 26q51 47 51 84q-18 7 -26 24q-6 10 -6 23
q0 24 23 41q12 8 28 8z" />
    <glyph glyph-name="quotedblbase" unicode="&#x201e;" horiz-adv-x="392" 
d="M256 96q24 0 40 -21q9 -15 9 -37q0 -62 -73 -126q-20 -19 -25 -21q-7 8 -20 25q50 48 50 84q-18 8 -26 24q-6 11 -6 23q0 25 23 41q12 8 28 8zM111 96q25 0 41 -21q8 -15 8 -37q0 -62 -72 -126q-20 -19 -27 -21q-6 8 -20 25q51 48 51 84q-18 8 -26 24q-6 11 -6 23
q0 25 23 41q12 8 28 8z" />
    <glyph glyph-name="dagger" unicode="&#x2020;" horiz-adv-x="443" 
d="M187 335h-127v70h127v127h70v-127h127v-70h-127v-335h-70v335z" />
    <glyph glyph-name="daggerdbl" unicode="&#x2021;" horiz-adv-x="443" 
d="M187 335h-127v70h127v127h70v-127h127v-70h-127v-138h127v-69h-127v-128h-70v128h-127v69h127v138z" />
    <glyph glyph-name="bullet" unicode="&#x2022;" horiz-adv-x="449" 
d="M150 476v-1q0 -33 29 -55q18 -12 38 -12q32 0 54 27q13 19 13 40q0 33 -28 56q-18 12 -39 12h-1q-29 0 -52 -27q-14 -19 -14 -40z" />
    <glyph glyph-name="ellipsis" unicode="&#x2026;" horiz-adv-x="600" 
d="M100 100v0q22 0 38 -17q12 -15 12 -31v-3q0 -21 -18 -37q-15 -12 -32 -12q-20 0 -35 14q-15 16 -15 34v4q0 19 17 35q14 13 33 13zM500 100v0q22 0 38 -17q12 -15 12 -31v-3q0 -21 -18 -37q-15 -12 -32 -12q-20 0 -35 14q-15 16 -15 34v4q0 19 17 35q14 13 33 13z
M300 100v0q22 0 38 -17q12 -15 12 -31v-3q0 -21 -18 -37q-15 -12 -32 -12q-20 0 -35 14q-15 16 -15 34v4q0 19 17 35q14 13 33 13z" />
    <glyph glyph-name="perthousand" unicode="&#x2030;" horiz-adv-x="1065" 
d="M124 575v-1q0 -29 24 -49q18 -13 37 -13q30 0 51 25q13 17 13 37v2q0 23 -19 43q-19 18 -44 18t-44 -17q-18 -20 -18 -45zM472 137q0 -33 30 -54q15 -10 33 -10q30 0 51 27q12 17 12 34v4q0 26 -23 47q-19 14 -38 14h-4q-27 0 -46 -23q-15 -18 -15 -39zM535 276
q57 0 101 -43q2 -2 5 -6q33 -41 33 -90q0 -58 -43 -101q-17 -17 -28 -22q-32 -18 -66 -18h-5q-45 0 -85 32q-14 12 -23 22q-29 40 -29 85v3q0 48 34 90q17 18 26 22q37 26 80 26zM185 714h3q48 0 90 -33q16 -16 20 -23q28 -38 28 -83q0 -57 -42 -100q-3 -2 -8 -7
q-40 -33 -91 -33q-48 0 -88 33q-13 11 -19 19q-10 13 -16 24q-15 31 -15 60v6q0 42 26 80q6 8 19 22q43 35 93 35zM630 716q-114 -179 -458 -716h-80q115 179 458 716h80zM796 136q0 -32 30 -53q15 -10 34 -10q29 0 50 26q12 18 12 34v5q0 26 -23 46q-19 14 -38 14h-4
q-26 0 -46 -22q-15 -18 -15 -40zM859 276q57 0 101 -43q2 -2 5 -6q34 -41 34 -91q0 -58 -43 -101q-18 -16 -29 -21q-32 -18 -66 -18h-4q-45 0 -85 31q-15 13 -24 23q-29 40 -29 84v4q0 48 34 89q17 19 26 23q37 26 80 26z" />
    <glyph glyph-name="guilsinglleft" unicode="&#x2039;" horiz-adv-x="318" 
d="M35 208v54q34 23 138 91l56 36q39 -57 39 -58l-147 -96q140 -91 147 -96q-13 -19 -39 -58q-1 0 -21 14q-38 24 -112 73q-15 10 -61 40z" />
    <glyph glyph-name="guilsinglright" unicode="&#x203a;" horiz-adv-x="318" 
d="M284 262v-54q-35 -22 -140 -91q-13 -9 -55 -36q-38 58 -38 59q48 32 145 96q-140 91 -145 96q12 19 37 57q1 0 23 -13q37 -25 111 -73q15 -11 62 -41z" />
    <glyph glyph-name="fraction" unicode="&#x2044;" horiz-adv-x="129" 
d="M235 687h69v0l-384 -712h-70l384 712h1z" />
    <glyph glyph-name="franc" unicode="&#x20a3;" horiz-adv-x="484" 
d="M167 180v-180v0h-70v0v180h-57v71h57v481v0h363h1v-69q0 -1 -1 -1h-293v-261h247l1 -1v-68l-1 -1h-247v-80h110v-71h-110z" />
    <glyph glyph-name="uni20a4" unicode="&#x20a4;" horiz-adv-x="608" 
d="M333 698q60 0 114 -34l25 -20q0 -1 1 -2v-1l-49 -49q-20 19 -41 26q-26 10 -50 10q-48 0 -91 -37q-26 -26 -26 -66v-1q0 -37 21 -81h187v0v-70v0h-156v-1q4 -12 8 -29v-3h148v0v-69h-151q-1 0 -2 -8q-7 -20 -15 -36q-11 -23 -29 -51q-14 -17 -32 -39h5q68 0 115 -46
q40 -34 77 -34q52 0 115 66v0q13 -12 50 -48q-81 -87 -166 -87q-64 0 -124 52q-18 16 -28 20q-18 7 -39 7q-49 0 -116 -40q-5 -3 -14 -10q-11 14 -43 55q28 24 52 47q41 38 54 54q28 32 41 51q16 24 22 40q1 2 3 7h-106v69v0h111q0 4 -10 29q-2 3 -2 4h-99v0v70v0h68
q-15 42 -15 78v7q0 48 26 88q5 9 21 25q64 57 140 57z" />
    <glyph glyph-name="uni20a7" unicode="&#x20a7;" horiz-adv-x="1312" 
d="M685 732h70h1v-257h128h1v-70l-1 -1h-128v-274q0 -21 10 -38q10 -14 29 -20q8 -2 13 -2h4q18 0 52 13q1 1 5 3q26 -56 29 -64q-7 -4 -29 -11q-34 -11 -54 -11h-9q-26 0 -56 16q-39 21 -55 62q-10 26 -10 57v269h-78v1v70v0h78v257zM1107 483h6q51 0 98 -25q14 -7 32 -22
q15 -13 24 -24q8 -11 8 -12q-46 -26 -60 -36h-1q-9 14 -27 27q-32 21 -78 21q-52 0 -85 -25q-23 -20 -23 -44q0 -19 15 -28q5 -5 16 -10q21 -11 75 -24q25 -5 63 -12q25 -6 41 -14q15 -7 30 -19q5 -3 19 -17q30 -35 30 -77v-3q0 -44 -33 -84q-13 -14 -20 -19
q-16 -12 -29 -19q-48 -22 -99 -22h-6q-55 0 -107 27q-48 28 -76 77q1 1 29 16q11 6 32 17q23 -40 67 -57q28 -10 59 -10q44 0 78 20q7 4 19 15q16 19 16 40q0 33 -41 53q-11 4 -30 9q-80 14 -125 30q-92 35 -92 110v2q0 45 34 84q17 16 23 20q22 16 52 24q33 11 66 11z
M88 732h229q106 0 183 -84q56 -71 56 -151v-8q0 -91 -69 -164q-75 -70 -169 -70h-162v-254l-1 -1h-67q-1 0 -2 1v730zM156 662v-337h161q83 0 139 71q30 45 30 95v5q0 76 -66 131q-47 35 -104 35h-160z" />
    <glyph glyph-name="uni20ac" unicode="&#x20ac;" horiz-adv-x="676" 
d="M400 669h4q89 0 172 -48q19 -11 42 -30q7 -7 9 -8q-16 -17 -47 -52q-39 35 -88 53q-44 16 -90 16q-90 0 -164 -57q-10 -8 -27 -26q-24 -26 -36 -47q-10 -16 -19 -39q-1 -3 -4 -11h432v0v-69v-1h-445v-1v-13v-1q0 -18 2 -34h443v0v-69v0h-424q40 -92 131 -135
q53 -25 111 -25q79 0 147 45q13 9 30 23q0 1 1 1q11 -13 47 -52v0q-23 -20 -42 -33q-85 -53 -182 -53h-2q-89 0 -170 46q-17 11 -36 26q-11 7 -33 29q-24 26 -34 41q-16 23 -29 51q-7 17 -14 36h-58v0v69v0h44q-3 16 -3 31v13q1 1 1 5h-42v1v69v0h53q8 31 17 53q11 23 29 51
q10 16 29 36q21 23 29 28q27 23 44 32q24 16 57 28q58 21 115 21z" />
    <glyph glyph-name="uni2116" unicode="&#x2116;" horiz-adv-x="1196" 
d="M745 70h350v-70h-350v70zM88 732h85q4 -4 268 -436q38 -62 113 -185h1v620l1 1h68l1 -1v-730l-1 -1h-83q-7 8 -37 60q-3 3 -268 437q-25 42 -76 124v-620q-1 0 -2 -1h-70q-1 0 -2 1v730zM913 615h13q77 0 146 -60q79 -76 79 -182q0 -107 -83 -185q-68 -56 -148 -56
q-87 0 -157 64q-74 76 -74 175v5q0 99 74 175q70 64 150 64zM759 373v-2q0 -71 53 -125q48 -45 108 -45q75 0 128 70q32 49 32 102q0 76 -56 131q-47 40 -101 40h-8q-59 0 -111 -51q-45 -53 -45 -120z" />
    <glyph glyph-name="trademark" unicode="&#x2122;" horiz-adv-x="1220" 
d="M520 150v582h88q0 -1 57 -103q35 -63 106 -189q14 -26 56 -101q1 2 24 42q36 66 109 196l74 134q4 7 13 21h86v0v-582h-73v462q-26 -47 -105 -188q-24 -44 -98 -175l-1 -2h-58q-2 1 -17 29q-37 67 -112 200q-18 34 -75 136h-1v-462h-73zM204 150v512h-196v1v69v0h461h1
v-69q0 -1 -1 -1h-195v-512h-70z" />
    <glyph glyph-name="partialdiff" unicode="&#x2202;" horiz-adv-x="507" 
 />
    <glyph glyph-name="Delta" unicode="&#x2206;" horiz-adv-x="540" 
 />
    <glyph glyph-name="product" unicode="&#x220f;" horiz-adv-x="757" 
 />
    <glyph glyph-name="summation" unicode="&#x2211;" horiz-adv-x="603" 
 />
    <glyph glyph-name="minus" unicode="&#x2212;" horiz-adv-x="404" 
d="M38 340h325v-70h-325v70z" />
    <glyph glyph-name="uni2215" unicode="&#x2215;" horiz-adv-x="129" 
d="M235 687h69v0l-384 -712h-70l384 712h1z" />
    <glyph glyph-name="uni2219" unicode="&#x2219;" horiz-adv-x="342" 
d="M171 450h1q21 0 37 -18q12 -15 12 -30v-3q0 -22 -18 -38q-15 -11 -32 -11q-19 0 -35 14q-15 16 -15 34v4q0 19 16 35q15 13 34 13z" />
    <glyph glyph-name="radical" unicode="&#x221a;" horiz-adv-x="507" 
 />
    <glyph glyph-name="infinity" unicode="&#x221e;" horiz-adv-x="507" 
 />
    <glyph glyph-name="integral" unicode="&#x222b;" horiz-adv-x="332" 
 />
    <glyph glyph-name="approxequal" unicode="&#x2248;" horiz-adv-x="492" 
d="M420 388q-15 -17 -35 -26q-24 -12 -51 -12q-24 0 -100 24q-75 24 -99 24q-20 0 -47 -14q-15 -9 -35 -31v83q17 18 32 26q28 13 50 13q26 0 101 -25q76 -25 98 -25q25 0 48 14q20 10 38 32v-83zM421 220q-16 -17 -36 -26q-23 -12 -50 -12q-24 0 -100 24t-100 24
q-20 0 -47 -14q-15 -9 -35 -31v83q17 18 32 26q29 13 50 13q26 0 102 -25t98 -25q25 0 47 14q20 10 39 32v-83z" />
    <glyph glyph-name="lessequal" unicode="&#x2264;" horiz-adv-x="436" 
d="M304 640q11 -13 44 -54q-44 -36 -175 -142q-14 -12 -57 -48q14 -11 57 -46q44 -36 175 -143q-11 -13 -44 -54q-43 35 -172 139q-22 19 -89 75v60q2 2 122 100q46 38 139 113zM43 70h349v-70h-349v70z" />
    <glyph glyph-name="greaterequal" unicode="&#x2265;" horiz-adv-x="436" 
d="M271 527q120 -98 122 -100v-60q-23 -19 -90 -75q-43 -34 -171 -139q-11 13 -44 54q43 36 174 143q14 12 58 46q-15 12 -58 48q-44 35 -174 142q11 14 44 54q35 -28 139 -113zM393 0h-350v70h350v-70z" />
    <glyph glyph-name="unif002" unicode="&#xf002;" horiz-adv-x="504" 
 />
    <glyph glyph-name="fi" unicode="&#xfb01;" horiz-adv-x="532" 
d="M281 732h15h1v-69l-1 -1h-11q-62 0 -94 -64q-22 -46 -22 -119v-4h127l1 -1v-68l-1 -1h-127v-404v-1h-69q-1 0 -1 1v404h-85v1v68v1h85v9q0 112 50 180q5 8 20 22q16 16 29 22q14 8 28 13q29 11 55 11zM381 475h69v-1v-474v0h-69h-1v474zM413 732h4q19 0 35 -16
q13 -16 13 -33v-2q0 -22 -18 -38q-14 -11 -30 -11h-3q-22 0 -38 19q-11 14 -11 29v4q0 19 16 35q16 13 32 13z" />
    <glyph glyph-name="fl" unicode="&#xfb02;" horiz-adv-x="525" 
d="M281 732h15h1v-69l-1 -1h-11q-62 0 -94 -64q-22 -46 -22 -119v-4h127l1 -1v-68l-1 -1h-127v-404v-1h-69q-1 0 -1 1v404h-85v1v68v1h85v9q0 112 50 180q5 8 20 22q16 16 29 22q14 8 28 13q29 11 55 11zM386 732h69v-1v-731v0h-69h-1v731q1 0 1 1z" />
  </font>
</defs>
</svg>
